<?xml version="1.0" encoding="utf-8"?>
<!-- Generator: Adobe Illustrator 22.1.0, SVG Export Plug-In . SVG Version: 6.00 Build 0)  -->
<svg version="1.1" id="Layer_1" xmlns="http://www.w3.org/2000/svg" xmlns:xlink="http://www.w3.org/1999/xlink" x="0px" y="0px"
	 viewBox="0 0 627 315" style="enable-background:new 0 0 627 315;" xml:space="preserve">
<style type="text/css">
	.st0{fill:#CCCCCC;}
	.st1{opacity:0.45;}
	.st2{fill:none;}
	.st3{fill:#FFFFFF;}
	.st4{opacity:0.17;}
	.st5{fill:#F16529;}
	.st6{fill:#2062AF;}
	.st7{opacity:0.31;fill:#F16529;}
	.st8{opacity:0.39;fill:#2062AF;}
	.st9{opacity:0.32;fill:#2062AF;}
	.st10{display:none;}
	.st11{display:inline;fill:#563D7C;}
	.st12{display:inline;fill:#FFFFFF;}
	.st13{display:none;opacity:0.26;}
	.st14{display:inline;fill:none;}
	.st15{display:none;fill:#CF649A;}
	.st16{opacity:0.46;}
	.st17{fill:#E44D26;}
	.st18{fill:#EBEBEB;}
	.st19{opacity:0.32;}
	.st20{fill:#3C9CD7;}
	.st21{fill:url(#SVGID_1_);}
	.st22{fill:url(#SVGID_2_);}
	.st23{fill:url(#SVGID_3_);}
	.st24{opacity:5.000000e-02;enable-background:new    ;}
	.st25{fill:url(#SVGID_4_);}
</style>
<rect x="-61" y="-60" class="st0" width="739" height="456"/>
<g class="st1">
	<path class="st2" d="M356.4,299.8c0,0.2,0,0.5,0.1,0.7l-25.4,8.3L301.2,260c0.1-0.1,0.2-0.2,0.3-0.3l55.3,38.6
		C356.6,298.7,356.4,299.3,356.4,299.8z"/>
	<path class="st2" d="M297.1,260.4c0.1,0.1,0.2,0.1,0.4,0.2l-14.2,60.9c-0.1,0-0.2,0-0.3,0c-1.1,0-2.1,0.5-2.8,1.3l-19.7-12.4
		L297.1,260.4z"/>
	<path class="st2" d="M357.4,297.3l-55.2-38.5c0.1-0.2,0.2-0.5,0.3-0.8l37.2,3.5l18.3,35.3C357.8,297,357.6,297.1,357.4,297.3z"/>
	<path class="st2" d="M406.9,347.1c-0.2,0-0.4-0.1-0.7-0.1c-0.7,0-1.3,0.2-1.9,0.5l-21.9-24l51.8-51c0.1,0.1,0.3,0.2,0.4,0.3
		L406.9,347.1z"/>
	<path class="st2" d="M433.3,271.5c0.1,0.1,0.1,0.2,0.2,0.3l-51.8,51L363,302.2c0.5-0.6,0.9-1.5,0.9-2.4c0-0.3,0-0.5-0.1-0.8
		L433.3,271.5z"/>
	<path class="st2" d="M286.3,323.6c-0.4-0.8-1.1-1.4-1.9-1.8l0.3-1.1l13.9-59.8c0.1,0,0.2,0,0.3,0c0.5,0,1-0.1,1.4-0.3l29.7,48.7
		L286.3,323.6z"/>
	<path class="st2" d="M359.2,303.4l-1.6,16.9l-2.5,25.9c-0.3,0.2-0.5,0.4-0.8,0.6l-22.6-37l25.2-8.3
		C357.3,302.5,358.2,303.2,359.2,303.4z"/>
	<path class="st2" d="M353.6,347.8c-0.1,0.2-0.2,0.3-0.2,0.5l-66.8-22.4c0-0.2,0.1-0.4,0.1-0.7c0-0.2,0-0.4-0.1-0.6l44-14.4
		L353.6,347.8z"/>
	<path class="st2" d="M301.8,192.3l-3.3,61.1c-1.9,0.2-3.4,1.8-3.4,3.7c0,0.1,0,0.1,0,0.2l-86.5,17.8c-0.1-0.3-0.2-0.5-0.4-0.8
		l91.9-82.8C300.6,191.9,301.2,192.2,301.8,192.3z"/>
	<path class="st2" d="M230.7,352.2c-0.1-0.2-0.3-0.3-0.5-0.5l29.6-40.4l19.8,12.4c-0.2,0.5-0.3,1-0.3,1.5c0,0.4,0.1,0.8,0.2,1.2
		L230.7,352.2z"/>
	<path class="st2" d="M208,278.8l50.9,32l-29.6,40.4c-0.5-0.2-1-0.3-1.5-0.3c-0.2,0-0.5,0-0.7,0.1l-20.3-71.1
		C207.2,279.5,207.6,279.2,208,278.8z"/>
	<path class="st2" d="M302.5,256.9c-0.1-1.7-1.3-3.1-3-3.4l3.3-61.1c0.3,0,0.6-0.1,0.9-0.2l35.3,68.1L302.5,256.9z"/>
	<path class="st2" d="M558.5,338.4c-0.1,0-0.1-0.1-0.2-0.1l3.7-12.1l11.4-37.9c0.2,0,0.4,0,0.5,0c0.5,0,1-0.1,1.4-0.3l9.5,15.9
		L558.5,338.4z"/>
	<path class="st2" d="M358.2,346c-0.4-0.1-0.8-0.2-1.2-0.2c-0.2,0-0.5,0-0.7,0.1l2.4-25.2l1.7-17.1c0.7,0,1.3-0.2,1.8-0.6l18.8,20.6
		L358.2,346z"/>
	<path class="st2" d="M53.7,273.1c0.4,0.2,0.9,0.3,1.4,0.3c0.2,0,0.3,0,0.5,0l24.9,88.1c-0.3,0.2-0.5,0.4-0.7,0.6l-51.9-46
		L53.7,273.1z"/>
	<path class="st2" d="M58.4,268c-0.1-0.2-0.2-0.3-0.3-0.5l51.1-49.5c0.6,0.5,1.4,0.8,2.3,0.8c1,0,1.9-0.4,2.5-1l28.1,22.6L58.4,268z
		"/>
	<path class="st2" d="M2,288.3l42.2-28l7.8,7.2c-0.4,0.6-0.6,1.3-0.6,2.1c0,0.3,0,0.5,0.1,0.7L2,288.3z"/>
	<path class="st2" d="M57.4,266.7c-0.6-0.5-1.4-0.8-2.3-0.8c-0.9,0-1.7,0.3-2.3,0.8l-7.6-7l61.7-40.9L57.4,266.7z"/>
	<path class="st2" d="M499.5,367.7c-0.4-0.3-0.9-0.5-1.5-0.6v-78.9c0.6-0.1,1.2-0.4,1.7-0.7l38.4,36.9L499.5,367.7z"/>
	<path class="st2" d="M560.5,341.6c0-1-0.4-1.9-1.1-2.6l26-34.2l39.8,66.7c-0.3,0.2-0.5,0.5-0.7,0.8l-64.2-29.8
		C560.4,342.3,560.5,342,560.5,341.6z"/>
	<path class="st2" d="M152.3,248.6c-0.3,0.5-0.5,1.2-0.5,1.9c0,0.1,0,0.1,0,0.2l-88.6,16.9l79.9-26.4L152.3,248.6z"/>
	<path class="st2" d="M557.3,337.9c-0.2,0-0.4,0-0.5,0c-0.9,0-1.8,0.3-2.4,0.9l-15.1-14.5l32.7-36.7c0.1,0.1,0.3,0.2,0.5,0.3
		L557.3,337.9z"/>
	<path class="st2" d="M295.4,258.4c0.2,0.5,0.5,1,0.9,1.4l-36.7,50.1l-51-32c0.2-0.5,0.3-1,0.3-1.5c0-0.1,0-0.1,0-0.2L295.4,258.4z"
		/>
	<path class="st2" d="M576.3,287.4c0.8-0.7,1.4-1.7,1.4-2.9c0-0.6-0.1-1.1-0.3-1.5l46.1-30.1c0,0,0.1,0.1,0.1,0.1l-38,49.9
		L576.3,287.4z"/>
	<path class="st2" d="M161.1,237.1l-4.6,9.8c-0.3-0.1-0.7-0.2-1-0.2c-1,0-1.9,0.4-2.5,1l-8.7-7l15.5-5.1
		C160.1,236.2,160.6,236.7,161.1,237.1z"/>
	<path class="st2" d="M202.2,274.2L159,251.7c0.1-0.4,0.2-0.8,0.2-1.2c0-1.3-0.7-2.4-1.7-3.1l4.6-9.8c0.3,0.1,0.7,0.2,1,0.2
		c0.8,0,1.6-0.3,2.2-0.7L202.2,274.2C202.2,274.2,202.2,274.2,202.2,274.2z"/>
	<path class="st2" d="M1.6,289.9c0-0.1,0-0.2,0-0.3l50.2-18.2c0.2,0.4,0.5,0.8,0.9,1.1L27,315.3L0.9,292.2
		C1.4,291.6,1.6,290.8,1.6,289.9z"/>
	<path class="st2" d="M44.3,258.9l-19.9-18.4c0.4-0.6,0.6-1.3,0.6-2.1c0-0.1,0-0.3,0-0.4l83-21.5c0,0,0,0.1,0.1,0.1L44.3,258.9z"/>
	<path class="st2" d="M23.7,241.3l19.7,18.2L0.9,287.7c-0.2-0.3-0.5-0.6-0.8-0.8L20.3,242c0.3,0.1,0.7,0.1,1,0.1
		C22.2,242.1,23,241.8,23.7,241.3z"/>
	<path class="st2" d="M159.5,234.6l-16.2,5.3l-28.6-23c0,0,0-0.1,0.1-0.1l44.8,16.4c0,0.2-0.1,0.5-0.1,0.7
		C159.4,234.2,159.4,234.4,159.5,234.6z"/>
	<path class="st2" d="M58.4,271.3c0.3-0.5,0.4-1.1,0.4-1.7c0-0.1,0-0.1,0-0.2l93.2-17.8c0.2,0.6,0.6,1.1,1.1,1.6l-37.6,58.5
		L58.4,271.3z"/>
	<path class="st2" d="M154,253.8c0.1,0,0.1,0.1,0.2,0.1L139.3,321l-0.8,3.7c-0.1,0-0.2,0-0.3,0c-1.1,0-2,0.5-2.7,1.2l-19.1-13.6
		L154,253.8z"/>
	<path class="st2" d="M304.7,191.7c0.2-0.2,0.5-0.4,0.7-0.6l125.2,77.8l-90.2-8.4L304.7,191.7z"/>
	<path class="st2" d="M82.5,360.8c-0.4,0-0.7,0.1-1,0.1L56.6,273c0.4-0.2,0.8-0.5,1.2-0.8l57.1,40.4L83.8,361
		C83.4,360.9,83,360.8,82.5,360.8z"/>
	<path class="st2" d="M493.7,286.2l-32.5,23.6l-22.4-37.4c0.5-0.4,0.8-0.9,1.1-1.5l53.4,13.1c0,0.1,0,0.2,0,0.3
		C493.3,285.1,493.5,285.7,493.7,286.2z"/>
	<path class="st2" d="M141.5,326.7l43-33.4l40.7,58.7c-0.3,0.3-0.5,0.7-0.7,1.1l-82.5-24c0-0.2,0-0.4,0-0.6
		C141.9,327.8,141.8,327.2,141.5,326.7z"/>
	<path class="st2" d="M0.1,293l26.4,23.3L8.7,345.8c-0.4-0.1-0.8-0.2-1.2-0.2c-0.1,0-0.3,0-0.4,0l-8-52.1
		C-0.6,293.4-0.3,293.2,0.1,293z"/>
	<path class="st2" d="M139.5,325l0.9-4l14.8-66.8c0.1,0,0.2,0,0.3,0c0.6,0,1.1-0.1,1.6-0.4l26.7,38.5l-43,33.5
		C140.5,325.4,140,325.2,139.5,325z"/>
	<path class="st2" d="M84.7,361.5l31-48.3l19.1,13.5c-0.2,0.5-0.4,1-0.4,1.6c0,0.6,0.1,1.1,0.4,1.6l-49.6,32
		C85.1,361.8,84.9,361.7,84.7,361.5z"/>
	<path class="st2" d="M626.5,371l-40-67.1l38.2-50.2c0.4,0.2,0.8,0.4,1.3,0.4l1.4,116.7C627.1,370.8,626.8,370.9,626.5,371z"/>
	<path class="st2" d="M571.1,286.8l-32.7,36.6L500,286.6c0.3-0.5,0.6-1,0.6-1.6h69.6C570.4,285.7,570.7,286.3,571.1,286.8z"/>
	<path class="st2" d="M432.9,270.5L363.4,298c-0.6-1.1-1.8-1.9-3.2-1.9c-0.4,0-0.8,0.1-1.2,0.2l-18-34.7l91.9,8.6
		C432.9,270.3,432.9,270.4,432.9,270.5z"/>
	<path class="st2" d="M494.7,367.9c-0.5,0.4-0.9,0.9-1.1,1.5l-1.9-0.4l-81.7-18.3c0-0.7-0.2-1.3-0.5-1.9l51.5-37.4L494.7,367.9z"/>
	<path class="st2" d="M496,288.2v78.9c-0.3,0-0.6,0.1-0.9,0.2l-33.8-56.5l32.6-23.7C494.5,287.7,495.2,288.1,496,288.2z"/>
	<path class="st2" d="M408.7,348c-0.2-0.2-0.5-0.4-0.8-0.5l27.8-74.2c0.2,0.1,0.5,0.1,0.8,0.1c0.5,0,1-0.1,1.4-0.3l22.4,37.4
		L408.7,348z"/>
	<path class="st2" d="M158,253.2c0.2-0.2,0.3-0.3,0.5-0.5l43.2,22.5c-0.1,0.4-0.2,0.8-0.2,1.2c0,0.7,0.2,1.3,0.5,1.8l-17.3,13.5
		L158,253.2z"/>
	<path class="st2" d="M202.6,279c0.7,0.6,1.6,1,2.6,1c0.2,0,0.3,0,0.5,0l20.4,71.2c0,0,0,0-0.1,0l-40.7-58.7L202.6,279z"/>
	<path class="st3" d="M-2.2,293.6l8.1,52.3c-1.5,0.7-2.5,2.4-2.1,4.2c0.3,1.4,1.4,2.5,2.8,2.8c1.8,0.4,3.5-0.5,4.2-2l68,13.8
		c0.1,2.2,2.2,4,4.5,3.4c1.3-0.3,2.4-1.3,2.7-2.7c0.2-0.9,0.1-1.8-0.2-2.5l49.6-32c0.7,0.7,1.7,1.2,2.7,1.2c1.5,0,2.7-0.9,3.3-2.1
		l82.6,24c-0.1,1,0.1,2.1,2.3,3.7c0.4,0.3,0.9,0.5,1.4,0.5c0.9,0,1.6-0.3,2.3-0.8l34.4,31.9c-0.6,0.8-0.8,1.9-0.5,3.1
		c0.3,1.3,1.4,2.3,2.7,2.6c1.3,0.3,2.4-0.1,3.3-0.8l58.1,49.8c-0.5,0.8-0.7,1.9-0.4,3c0.4,1.3,1.4,2.3,2.7,2.6
		c2.4,0.6,4.6-1.3,4.6-3.6c0-0.8-0.2-1.5-0.7-2.1l37.1-34.6c0.6,0.5,1.4,0.8,2.3,0.8c1.8,0,3.2-1.2,3.6-2.9l120.9,8.8l0-0.5
		c0,2.3,2.1,4.1,4.4,3.6c1.3-0.3,2.4-1.2,2.8-2.5c0.3-0.9,0.2-1.7,0-2.4l33.9-20.4c0.7,0.8,1.7,1.3,2.8,1.3c1.1,0,2-0.4,2.7-1.2
		l38,26.6c-0.4,0.7-0.5,1.6-0.3,2.6c0.3,1.3,1.4,2.4,2.8,2.7c2.4,0.5,4.5-1.3,4.5-3.6c0-0.9-0.3-1.8-0.9-2.4l36.8-42.3
		c0.8,0.5,1.9,0.7,3,0.4c1.3-0.4,2.3-1.4,2.6-2.7c0.5-2.2-1.1-4.2-3.1-4.5l-1.4-116.7c2.1-0.3,3.6-2.3,3.1-4.5
		c-0.3-1.4-1.4-2.5-2.7-2.8c-2.4-0.6-4.6,1.3-4.6,3.6c0,0.5,0.1,1,0.3,1.5l-46.1,30.1c-0.7-0.8-1.7-1.2-2.8-1.2
		c-1.9,0-3.4,1.4-3.7,3.2h-69.6c-0.3-1.8-1.8-3.2-3.7-3.2c-1.5,0-2.9,1-3.4,2.3L440.1,270c0.1-1-0.1-2.2-2.8-3.8
		c-0.3-0.2-0.6-0.3-0.8-0.3c-1.8,0-3.4,1.3-3.6,3.1l-126.9-78.9c0.3-0.7,0.4-1.6,0.2-2.4c-0.3-1.3-1.4-2.4-2.7-2.6
		c-2.4-0.5-4.6,1.3-4.6,3.6c0,0.8,0.2,1.5,0.6,2l-91.9,82.8c-0.6-0.5-1.5-0.8-2.4-0.8c-0.8,0-1.6,0.3-2.2,0.7L166,236.2
		c0.6-0.8,0.9-2,0.6-3.1c-0.3-1.3-1.4-2.4-2.7-2.7c-1.8-0.4-3.4,0.4-4.2,1.8L115,215.8c0.1-0.5,0.1-1.1,0-1.7
		c-0.3-1.3-1.4-2.4-2.7-2.7c-2.4-0.5-4.6,1.3-4.6,3.6c0,0.1,0,0.3,0,0.4l-83,21.5c-0.7-1.6-2.4-2.6-4.2-2.2
		c-1.4,0.3-2.5,1.4-2.8,2.9c-0.3,1.6,0.4,3.1,1.6,3.9L-1,286.4c-0.7-0.2-1.4-0.3-2.2-0.1c-1.3,0.4-2.4,1.5-2.6,2.8
		C-6.3,291.5-4.5,293.6-2.2,293.6z M373.2,402.8l-2-6.7l30.6-38.9L375,403c-0.4-0.2-0.9-0.3-1.4-0.3
		C373.5,402.8,373.3,402.8,373.2,402.8z M502.4,411.9l-4.4-37.5c0.9-0.2,1.6-0.8,2.1-1.5l24.5,11.5l-20.7,28.1
		C503.4,412.1,502.9,411.9,502.4,411.9z M585.3,418.6l-11.9-32.9l50.7-10.1c0.2,0.4,0.4,0.8,0.7,1.2L588,419.1
		c-0.6-0.4-1.3-0.6-2-0.6C585.8,418.6,585.5,418.6,585.3,418.6z M142.1,240.4L58.4,268c-0.1-0.2-0.2-0.3-0.3-0.5l51.1-49.5
		c0.6,0.5,1.4,0.8,2.3,0.8c1,0,1.9-0.4,2.5-1L142.1,240.4z M79.8,362l-51.9-46l25.9-43c0.4,0.2,0.9,0.3,1.4,0.3c0.2,0,0.3,0,0.5,0
		l24.9,88.1C80.2,361.6,80,361.8,79.8,362z M51.4,269.6c0,0.3,0,0.5,0.1,0.7L2,288.3l42.2-28l7.8,7.2
		C51.6,268.1,51.4,268.9,51.4,269.6z M45.2,259.7l61.7-40.9l-49.5,47.9c-0.6-0.5-1.4-0.8-2.3-0.8c-0.9,0-1.7,0.3-2.3,0.8L45.2,259.7
		z M143.1,241.2l9.2,7.4c-0.3,0.5-0.5,1.2-0.5,1.9c0,0.1,0,0.1,0,0.2l-88.6,16.9L143.1,241.2z M144.3,240.8l15.5-5.1
		c0.3,0.6,0.7,1.1,1.3,1.4l-4.6,9.8c-0.3-0.1-0.7-0.2-1-0.2c-1,0-1.9,0.4-2.5,1L144.3,240.8z M165.3,237l36.9,37.2c0,0,0,0,0,0
		L159,251.7c0.1-0.4,0.2-0.8,0.2-1.2c0-1.3-0.7-2.4-1.7-3.1l4.6-9.8c0.3,0.1,0.7,0.2,1,0.2C164,237.7,164.7,237.4,165.3,237z
		 M268.9,388l13.8-59.1c0.1,0,0.2,0,0.3,0c0.3,0,0.6,0,0.9-0.1l18.3,45.8l-31.5,14.8C270.2,388.8,269.6,388.3,268.9,388z
		 M624.5,372.4l-64.2-29.8c0.1-0.3,0.2-0.7,0.2-1c0-1-0.4-1.9-1.1-2.6l26-34.2l39.8,66.7C625,371.8,624.7,372.1,624.5,372.4z
		 M623.5,253l-38,49.9l-9.2-15.5c0.8-0.7,1.4-1.7,1.4-2.9c0-0.6-0.1-1.1-0.3-1.5l46.1-30.1C623.5,252.9,623.5,253,623.5,253z
		 M571.9,287.6c0.1,0.1,0.3,0.2,0.5,0.3l-15.1,50.1c-0.2,0-0.4,0-0.5,0c-0.9,0-1.8,0.3-2.4,0.9l-15.1-14.5L571.9,287.6z
		 M538.1,324.3l-38.6,43.3c-0.4-0.3-0.9-0.5-1.5-0.6v-78.9c0.6-0.1,1.2-0.4,1.7-0.7L538.1,324.3z M208.9,276.4c0-0.1,0-0.1,0-0.2
		l86.5-17.8c0.2,0.5,0.5,1,0.9,1.4l-36.7,50.1l-51-32C208.8,277.4,208.9,276.9,208.9,276.4z M360.6,349.1c-0.1-1-0.7-2-1.4-2.6
		l22.5-22.2l21.8,23.9c-0.4,0.4-0.7,1-0.9,1.6L360.6,349.1z M300.3,260.6l29.7,48.7l-43.7,14.4c-0.4-0.8-1.1-1.4-1.9-1.8l0.3-1.1
		l13.9-59.8c0.1,0,0.2,0,0.3,0C299.4,260.8,299.8,260.7,300.3,260.6z M330.6,310.2l23,37.6c-0.1,0.2-0.2,0.3-0.2,0.5l-66.8-22.4
		c0-0.2,0.1-0.4,0.1-0.7c0-0.2,0-0.4-0.1-0.6L330.6,310.2z M331.7,309.8l25.2-8.3c0.5,0.9,1.4,1.6,2.4,1.9l-1.6,16.9l-2.5,25.9
		c-0.3,0.2-0.5,0.4-0.8,0.6L331.7,309.8z M381,323.5L358.2,346c-0.4-0.1-0.8-0.2-1.2-0.2c-0.2,0-0.5,0-0.7,0.1l2.4-25.2l1.7-17.1
		c0.7,0,1.3-0.2,1.8-0.6L381,323.5z M280.2,322.8l-19.7-12.4l36.6-50c0.1,0.1,0.2,0.1,0.4,0.2l-14.2,60.9c-0.1,0-0.2,0-0.3,0
		C281.9,321.5,280.9,322,280.2,322.8z M301.5,259.7l55.3,38.6c-0.2,0.5-0.4,1-0.4,1.6c0,0.2,0,0.5,0.1,0.7l-25.4,8.3L301.2,260
		C301.3,259.9,301.4,259.8,301.5,259.7z M363.8,299.8c0-0.3,0-0.5-0.1-0.8l69.6-27.6c0.1,0.1,0.1,0.2,0.2,0.3l-51.8,51L363,302.2
		C363.5,301.6,363.8,300.7,363.8,299.8z M434.3,272.6c0.1,0.1,0.3,0.2,0.4,0.3l-27.8,74.2c-0.2,0-0.4-0.1-0.7-0.1
		c-0.7,0-1.3,0.2-1.9,0.5l-21.9-24L434.3,272.6z M575.4,288l9.5,15.9l-26.3,34.5c-0.1,0-0.1-0.1-0.2-0.1l3.7-12.1l11.4-37.9
		c0.2,0,0.4,0,0.5,0C574.4,288.2,574.9,288.1,575.4,288z M538.5,325.1l15.1,14.5c-0.4,0.6-0.6,1.2-0.6,2c0,0.4,0.1,0.8,0.2,1.1
		l-53.1,25.9c-0.1-0.1-0.1-0.2-0.2-0.3L538.5,325.1z M403.6,353.3l-32.7,41.6l-12.3-42c1.1-0.5,1.9-1.5,2.1-2.7l42,0.7
		C402.6,351.8,403,352.7,403.6,353.3z M370,395.9l-37,46.9c-0.1-0.1-0.2-0.1-0.4-0.2l23.8-89.5c0.1,0,0.3,0,0.4,0c0.2,0,0.3,0,0.5,0
		L370,395.9z M353.2,349.5c0,0.4,0.1,0.7,0.2,1.1l-50.3,23.6l-18.2-45.7c0.6-0.4,1.1-0.9,1.4-1.5L353.2,349.5
		C353.2,349.4,353.2,349.4,353.2,349.5z M279.3,325.2c0,0.4,0.1,0.8,0.2,1.2l-48.8,25.8c-0.1-0.2-0.3-0.3-0.5-0.5l29.6-40.4
		l19.8,12.4C279.4,324.2,279.3,324.7,279.3,325.2z M227,350.9l-20.3-71.1c0.5-0.2,0.9-0.6,1.3-1l50.9,32l-29.6,40.4
		c-0.5-0.2-1-0.3-1.5-0.3C227.5,350.8,227.3,350.8,227,350.9z M208.3,274.3l91.9-82.8c0.5,0.4,1,0.7,1.6,0.8l-3.3,61.1
		c-1.9,0.2-3.4,1.8-3.4,3.7c0,0.1,0,0.1,0,0.2l-86.5,17.8C208.6,274.8,208.4,274.6,208.3,274.3z M303.7,192.2l35.3,68.1l-36.5-3.4
		c-0.1-1.7-1.3-3.1-3-3.4l3.3-61.1C303.2,192.4,303.5,192.3,303.7,192.2z M339.7,261.5l18.3,35.3c-0.2,0.1-0.4,0.3-0.6,0.5
		l-55.2-38.5c0.1-0.2,0.2-0.5,0.3-0.8L339.7,261.5z M340.9,261.6l91.9,8.6c0,0.1,0,0.2,0.1,0.3L363.4,298c-0.6-1.1-1.8-1.9-3.2-1.9
		c-0.4,0-0.8,0.1-1.2,0.2L340.9,261.6z M437.9,273.1l22.4,37.4L408.7,348c-0.2-0.2-0.5-0.4-0.8-0.5l27.8-74.2
		c0.2,0.1,0.5,0.1,0.8,0.1C437,273.3,437.5,273.2,437.9,273.1z M460.9,311.4l33.8,56.4c-0.5,0.4-0.9,0.9-1.1,1.5l-1.9-0.4
		l-81.7-18.3c0-0.7-0.2-1.3-0.5-1.9L460.9,311.4z M461.3,310.8l32.6-23.7c0.6,0.6,1.3,0.9,2.1,1.1v78.9c-0.3,0-0.6,0.1-0.9,0.2
		L461.3,310.8z M500.7,285h69.6c0.1,0.7,0.4,1.3,0.8,1.8l-32.7,36.6L500,286.6C500.4,286.1,500.6,285.6,500.7,285z M626,254.1
		l1.4,116.7c-0.3,0-0.6,0.1-0.8,0.2l-40-67.1l38.2-50.2C625.1,253.9,625.5,254.1,626,254.1z M573,384.7l-14.5-39.9
		c0.5-0.3,1-0.7,1.3-1.2l64.2,29.8c-0.1,0.3-0.2,0.7-0.2,1c0,0.1,0,0.1,0,0.2L573,384.7z M571.9,385l-26.4,5.2
		c-0.4-1-1.1-1.8-2.1-2.2l13.2-42.7c0,0,0.1,0,0.1,0c0.3,0,0.5,0,0.7-0.1L571.9,385z M538.8,389.7l-12.5-5.9l28.8-39
		c0.2,0.1,0.4,0.2,0.6,0.2l-13.2,42.6c-0.1,0-0.2,0-0.3,0C540.6,387.7,539.4,388.5,538.8,389.7z M525.3,383.4l-24.7-11.6
		c0.1-0.3,0.2-0.7,0.2-1.1c0-0.4-0.1-0.8-0.2-1.1l53.3-25.8c0.1,0.1,0.2,0.3,0.3,0.4L525.3,383.4z M409.7,352.1
		c0-0.1,0.1-0.2,0.1-0.3l63.1,14.1l20.4,4.6c0,0.1,0,0.2,0,0.3c0,2,1.6,3.6,3.6,3.7l4.4,37.4c-0.8,0.1-1.4,0.5-1.9,1L409.7,352.1z
		 M370,406.5c0,0.8,0.2,1.5,0.7,2.1L336,440.8l34.4-43.6l1.7,5.9C370.8,403.7,370,405,370,406.5z M330.3,442.4l-26.9-67.3l50.3-23.6
		c0.4,0.6,1,1.1,1.6,1.4l-23.8,89.5c-0.1,0-0.3,0-0.4,0C330.9,442.3,330.6,442.4,330.3,442.4z M328.8,443.3l-58.1-49.8
		c0.4-0.6,0.6-1.2,0.6-2c0-0.4-0.1-0.7-0.2-1.1l31.5-14.8l26.8,67.2C329.1,443,328.9,443.1,328.8,443.3z M265.2,388.5l-34.4-31.9
		c0.4-0.6,0.7-1.3,0.7-2.1c0-0.5-0.1-0.9-0.3-1.3l48.8-25.8c0.4,0.6,1,1,1.6,1.3l-13.8,59.1c-0.1,0-0.2,0-0.3,0
		C266.6,387.7,265.8,388,265.2,388.5z M185.3,292.5l17.3-13.5c0.7,0.6,1.6,1,2.6,1c0.2,0,0.3,0,0.5,0l20.4,71.2c0,0,0,0-0.1,0
		L185.3,292.5z M184.7,291.6L158,253.2c0.2-0.2,0.3-0.3,0.5-0.5l43.2,22.5c-0.1,0.4-0.2,0.8-0.2,1.2c0,0.7,0.2,1.3,0.5,1.8
		L184.7,291.6z M183.8,292.3l-43,33.5c-0.4-0.4-0.8-0.6-1.3-0.8l0.9-4l14.8-66.8c0.1,0,0.2,0,0.3,0c0.6,0,1.1-0.1,1.6-0.4
		L183.8,292.3z M135.5,325.9l-19.1-13.6l37.6-58.5c0.1,0,0.1,0.1,0.2,0.1L139.3,321l-0.8,3.7c-0.1,0-0.2,0-0.3,0
		C137.1,324.7,136.2,325.2,135.5,325.9z M115.5,311.7l-57.1-40.4c0.3-0.5,0.4-1.1,0.4-1.7c0-0.1,0-0.1,0-0.2l93.2-17.8
		c0.2,0.6,0.6,1.1,1.1,1.6L115.5,311.7z M114.9,312.6L83.8,361c-0.4-0.1-0.8-0.2-1.2-0.2c-0.4,0-0.7,0.1-1,0.1L56.6,273
		c0.4-0.2,0.8-0.5,1.2-0.8L114.9,312.6z M9.7,346.3L27.3,317L79.2,363c-0.1,0.2-0.2,0.4-0.2,0.6l-67.8-13.8c0-0.2,0-0.3,0-0.5
		C11.2,348.1,10.6,347,9.7,346.3z M27,315.3L0.9,292.2c0.5-0.6,0.8-1.4,0.8-2.3c0-0.1,0-0.2,0-0.3l50.2-18.2
		c0.2,0.4,0.5,0.8,0.9,1.1L27,315.3z M20.3,242c0.3,0.1,0.7,0.1,1,0.1c0.9,0,1.7-0.3,2.3-0.8l19.7,18.2L0.9,287.7
		c-0.2-0.3-0.5-0.6-0.8-0.8L20.3,242z M108.1,216.5c0,0,0,0.1,0.1,0.1l-63.8,42.3l-19.9-18.4c0.4-0.6,0.6-1.3,0.6-2.1
		c0-0.1,0-0.3,0-0.4L108.1,216.5z M159.5,233.2c0,0.2-0.1,0.5-0.1,0.7c0,0.2,0,0.4,0.1,0.6l-16.2,5.3l-28.6-23c0,0,0-0.1,0.1-0.1
		L159.5,233.2z M430.6,268.9l-90.2-8.4l-35.6-68.8c0.2-0.2,0.5-0.4,0.7-0.6L430.6,268.9z M493.3,284.2c0,0.1,0,0.2,0,0.3
		c0,0.6,0.2,1.2,0.4,1.7l-32.5,23.6l-22.4-37.4c0.5-0.4,0.8-0.9,1.1-1.5L493.3,284.2z M545.4,393.1c0.3-0.5,0.4-1.1,0.4-1.7
		c0-0.1,0-0.1,0-0.2l26.5-5.3l12,33c-0.3,0.2-0.7,0.4-0.9,0.7L545.4,393.1z M504.9,413.3c-0.1-0.1-0.1-0.1-0.2-0.2l20.9-28.3l12.8,6
		c0,0.2-0.1,0.4-0.1,0.7c0,0.5,0.1,1,0.3,1.5L504.9,413.3z M377.4,406.2c-0.1-1.1-0.6-2-1.4-2.6l28.9-49.4c0.4,0.2,0.9,0.3,1.4,0.3
		c1.2,0,2.2-0.5,2.9-1.4l89.5,60.7c-0.2,0.4-0.4,0.8-0.4,1.3l0-0.1L377.4,406.2z M141.9,329c0-0.2,0-0.4,0-0.6
		c0-0.6-0.2-1.2-0.4-1.8l43-33.4l40.7,58.7c-0.3,0.3-0.5,0.7-0.7,1.1L141.9,329z M85.3,362c-0.2-0.2-0.3-0.3-0.5-0.5l31-48.3
		l19.1,13.5c-0.2,0.5-0.4,1-0.4,1.6c0,0.6,0.1,1.1,0.4,1.6L85.3,362z M7,345.6l-8-52.1c0.4-0.1,0.8-0.3,1.1-0.5l26.4,23.3L8.7,345.8
		c-0.4-0.1-0.8-0.2-1.2-0.2C7.3,345.6,7.2,345.6,7,345.6z"/>
</g>
<g class="st4">
	<path class="st2" d="M356.4,107.9c0-0.2,0-0.5,0.1-0.7l-25.4-8.3l-29.9,48.9c0.1,0.1,0.2,0.2,0.3,0.3l55.3-38.6
		C356.6,109,356.4,108.5,356.4,107.9z"/>
	<path class="st2" d="M297.1,147.3c0.1-0.1,0.2-0.1,0.4-0.2l-14.2-60.9c-0.1,0-0.2,0-0.3,0c-1.1,0-2.1-0.5-2.8-1.3l-19.7,12.4
		L297.1,147.3z"/>
	<path class="st2" d="M357.4,110.4L302.2,149c0.1,0.2,0.2,0.5,0.3,0.8l37.2-3.5l18.3-35.3C357.8,110.8,357.6,110.6,357.4,110.4z"/>
	<path class="st2" d="M406.9,60.6c-0.2,0-0.4,0.1-0.7,0.1c-0.7,0-1.3-0.2-1.9-0.5l-21.9,24l51.8,51c0.1-0.1,0.3-0.2,0.4-0.3
		L406.9,60.6z"/>
	<path class="st2" d="M433.3,136.3c0.1-0.1,0.1-0.2,0.2-0.3l-51.8-51L363,105.5c0.5,0.6,0.9,1.5,0.9,2.4c0,0.3,0,0.5-0.1,0.8
		L433.3,136.3z"/>
	<path class="st2" d="M286.3,84.2c-0.4,0.8-1.1,1.4-1.9,1.8l0.3,1.1l13.9,59.8c0.1,0,0.2,0,0.3,0c0.5,0,1,0.1,1.4,0.3L330,98.5
		L286.3,84.2z"/>
	<path class="st2" d="M359.2,104.3l-1.6-16.9l-2.5-25.9c-0.3-0.2-0.5-0.4-0.8-0.6l-22.6,37l25.2,8.3
		C357.3,105.3,358.2,104.6,359.2,104.3z"/>
	<path class="st2" d="M353.6,60c-0.1-0.2-0.2-0.3-0.2-0.5l-66.8,22.4c0,0.2,0.1,0.4,0.1,0.7c0,0.2,0,0.4-0.1,0.6l44,14.4L353.6,60z"
		/>
	<path class="st2" d="M359.2,61.2l22.5,22.2l21.8-23.9c-0.4-0.4-0.7-1-0.9-1.6l-42,0.7C360.5,59.7,360,60.6,359.2,61.2z"/>
	<path class="st2" d="M301.8,215.4l-3.3-61.1c-1.9-0.2-3.4-1.8-3.4-3.7c0-0.1,0-0.1,0-0.2l-86.5-17.8c-0.1,0.3-0.2,0.5-0.4,0.8
		l91.9,82.8C300.6,215.8,301.2,215.5,301.8,215.4z"/>
	<path class="st2" d="M230.7,55.5c-0.1,0.2-0.3,0.3-0.5,0.5l29.6,40.4L279.6,84c-0.2-0.5-0.3-1-0.3-1.5c0-0.4,0.1-0.8,0.2-1.2
		L230.7,55.5z"/>
	<path class="st2" d="M208,129l50.9-32l-29.6-40.4c-0.5,0.2-1,0.3-1.5,0.3c-0.2,0-0.5,0-0.7-0.1L206.7,128
		C207.2,128.2,207.6,128.6,208,129z"/>
	<path class="st2" d="M302.5,150.8c-0.1,1.7-1.3,3.1-3,3.4l3.3,61.1c0.3,0,0.6,0.1,0.9,0.2l35.3-68.1L302.5,150.8z"/>
	<path class="st2" d="M558.5,69.4c-0.1,0-0.1,0.1-0.2,0.1l3.7,12.1l11.4,37.9c0.2,0,0.4,0,0.5,0c0.5,0,1,0.1,1.4,0.3l9.5-15.9
		L558.5,69.4z"/>
	<path class="st2" d="M553.6,68.1c-0.4-0.6-0.6-1.2-0.6-2c0-0.4,0.1-0.8,0.2-1.1l-53.1-25.9c-0.1,0.1-0.1,0.2-0.2,0.3l38.6,43.3
		L553.6,68.1z"/>
	<path class="st2" d="M303.1,33.6l-18.2,45.7c0.6,0.4,1.1,0.9,1.4,1.5l66.9-22.5c0,0,0,0,0-0.1c0-0.4,0.1-0.7,0.2-1.1L303.1,33.6z"
		/>
	<path class="st2" d="M358.5,54.9c1.1,0.5,1.9,1.5,2.1,2.7l42-0.7c0-0.9,0.4-1.7,1-2.4l-32.7-41.6L358.5,54.9z"/>
	<path class="st2" d="M358.2,61.8c-0.4,0.1-0.8,0.2-1.2,0.2c-0.2,0-0.5,0-0.7-0.1l2.4,25.2l1.7,17.1c0.7,0,1.3,0.2,1.8,0.6L381,84.2
		L358.2,61.8z"/>
	<path class="st2" d="M53.7,134.7c0.4-0.2,0.9-0.3,1.4-0.3c0.2,0,0.3,0,0.5,0l24.9-88.1c-0.3-0.2-0.5-0.4-0.7-0.6l-51.9,46
		L53.7,134.7z"/>
	<path class="st2" d="M58.4,139.8c-0.1,0.2-0.2,0.3-0.3,0.5l51.1,49.5c0.6-0.5,1.4-0.8,2.3-0.8c1,0,1.9,0.4,2.5,1l28.1-22.6
		L58.4,139.8z"/>
	<path class="st2" d="M2,119.5l42.2,28l7.8-7.2c-0.4-0.6-0.6-1.3-0.6-2.1c0-0.3,0-0.5,0.1-0.7L2,119.5z"/>
	<path class="st2" d="M624.1,32c0.2-0.4,0.4-0.8,0.7-1.2L588-11.4c-0.6,0.4-1.3,0.6-2,0.6c-0.3,0-0.5,0-0.7-0.1L573.4,22L624.1,32z"
		/>
	<path class="st2" d="M401.8,50.5L375,4.7c-0.4,0.2-0.9,0.3-1.4,0.3c-0.2,0-0.3,0-0.5,0l-2,6.7L401.8,50.5z"/>
	<path class="st2" d="M57.4,141c-0.6,0.5-1.4,0.8-2.3,0.8c-0.9,0-1.7-0.3-2.3-0.8l-7.6,7l61.7,40.9L57.4,141z"/>
	<path class="st2" d="M500.1,34.9l24.5-11.5L503.9-4.6c-0.5,0.3-1,0.5-1.5,0.5L498,33.4C498.9,33.7,499.6,34.2,500.1,34.9z"/>
	<path class="st2" d="M499.5,40.1c-0.4,0.3-0.9,0.5-1.5,0.6v78.9c0.6,0.1,1.2,0.4,1.7,0.7l38.4-36.9L499.5,40.1z"/>
	<path class="st2" d="M560.5,66.2c0,1-0.4,1.9-1.1,2.6l26,34.2l39.8-66.7c-0.3-0.2-0.5-0.5-0.7-0.8l-64.2,29.8
		C560.4,65.4,560.5,65.8,560.5,66.2z"/>
	<path class="st2" d="M152.3,159.2c-0.3-0.5-0.5-1.2-0.5-1.9c0-0.1,0-0.1,0-0.2l-88.6-16.9l79.9,26.4L152.3,159.2z"/>
	<path class="st2" d="M557.3,69.8c-0.2,0-0.4,0-0.5,0c-0.9,0-1.8-0.3-2.4-0.9l-15.1,14.5l32.7,36.7c0.1-0.1,0.3-0.2,0.5-0.3
		L557.3,69.8z"/>
	<path class="st2" d="M295.4,149.3c0.2-0.5,0.5-1,0.9-1.4l-36.7-50.1l-51,32c0.2,0.5,0.3,1,0.3,1.5c0,0.1,0,0.1,0,0.2L295.4,149.3z"
		/>
	<path class="st2" d="M576.3,120.4c0.8,0.7,1.4,1.7,1.4,2.9c0,0.6-0.1,1.1-0.3,1.5l46.1,30.1c0,0,0.1-0.1,0.1-0.1l-38-49.9
		L576.3,120.4z"/>
	<path class="st2" d="M283,78.8c0.3,0,0.6,0,0.9,0.1l18.3-45.8l-31.5-14.8c-0.4,0.6-1,1.1-1.7,1.4l13.8,59.1
		C282.8,78.8,282.9,78.8,283,78.8z"/>
	<path class="st2" d="M161.1,170.7l-4.6-9.8c-0.3,0.1-0.7,0.2-1,0.2c-1,0-1.9-0.4-2.5-1l-8.7,7l15.5,5.1
		C160.1,171.5,160.6,171,161.1,170.7z"/>
	<path class="st2" d="M202.2,133.6L159,156.1c0.1,0.4,0.2,0.8,0.2,1.2c0,1.3-0.7,2.4-1.7,3.1l4.6,9.8c0.3-0.1,0.7-0.2,1-0.2
		c0.8,0,1.6,0.3,2.2,0.7L202.2,133.6C202.2,133.6,202.2,133.6,202.2,133.6z"/>
	<path class="st2" d="M332.7-34.9l23.8,89.5c0.1,0,0.3,0,0.4,0c0.2,0,0.3,0,0.5,0L370,11.8l-37-46.9C332.9-35,332.8-35,332.7-34.9z"
		/>
	<path class="st2" d="M1.6,117.8c0,0.1,0,0.2,0,0.3l50.2,18.2c0.2-0.4,0.5-0.8,0.9-1.1L27,92.4L0.9,115.5
		C1.4,116.2,1.6,117,1.6,117.8z"/>
	<path class="st2" d="M44.3,148.8l-19.9,18.4c0.4,0.6,0.6,1.3,0.6,2.1c0,0.1,0,0.3,0,0.4l83,21.5c0,0,0-0.1,0.1-0.1L44.3,148.8z"/>
	<path class="st2" d="M23.7,166.4l19.7-18.2L0.9,120c-0.2,0.3-0.5,0.6-0.8,0.8l20.2,44.9c0.3-0.1,0.7-0.1,1-0.1
		C22.2,165.6,23,165.9,23.7,166.4z"/>
	<path class="st2" d="M159.5,173.1l-16.2-5.3l-28.6,23c0,0,0,0.1,0.1,0.1l44.8-16.4c0-0.2-0.1-0.5-0.1-0.7
		C159.4,173.5,159.4,173.3,159.5,173.1z"/>
	<path class="st2" d="M58.4,136.4c0.3,0.5,0.4,1.1,0.4,1.7c0,0.1,0,0.1,0,0.2l93.2,17.8c0.2-0.6,0.6-1.1,1.1-1.6L115.5,96
		L58.4,136.4z"/>
	<path class="st2" d="M154,153.9c0.1,0,0.1-0.1,0.2-0.1l-14.9-67.1l-0.8-3.7c-0.1,0-0.2,0-0.3,0c-1.1,0-2-0.5-2.7-1.2l-19.1,13.6
		L154,153.9z"/>
	<path class="st2" d="M304.7,216c0.2,0.2,0.5,0.4,0.7,0.6l125.2-77.8l-90.2,8.4L304.7,216z"/>
	<path class="st2" d="M79.2,44.8c-0.1-0.2-0.2-0.4-0.2-0.6L11.1,57.9c0,0.2,0,0.3,0,0.5c0,1.2-0.6,2.3-1.5,3l17.6,29.3L79.2,44.8z"
		/>
	<path class="st2" d="M82.5,47c-0.4,0-0.7-0.1-1-0.1l-24.9,87.9c0.4,0.2,0.8,0.5,1.2,0.8l57.1-40.4L83.8,46.7
		C83.4,46.9,83,47,82.5,47z"/>
	<path class="st2" d="M493.7,121.5l-32.5-23.6l-22.4,37.4c0.5,0.4,0.8,0.9,1.1,1.5l53.4-13.1c0-0.1,0-0.2,0-0.3
		C493.3,122.6,493.5,122,493.7,121.5z"/>
	<path class="st2" d="M141.5,81.1l43,33.4l40.7-58.7c-0.3-0.3-0.5-0.7-0.7-1.1l-82.5,24c0,0.2,0,0.4,0,0.6
		C141.9,80,141.8,80.6,141.5,81.1z"/>
	<path class="st2" d="M0.1,114.8l26.4-23.3L8.7,62c-0.4,0.1-0.8,0.2-1.2,0.2c-0.1,0-0.3,0-0.4,0l-8,52.1
		C-0.6,114.4-0.3,114.6,0.1,114.8z"/>
	<path class="st2" d="M139.5,82.8l0.9,4l14.8,66.8c0.1,0,0.2,0,0.3,0c0.6,0,1.1,0.1,1.6,0.4l26.7-38.5l-43-33.5
		C140.5,82.3,140,82.6,139.5,82.8z"/>
	<path class="st2" d="M84.7,46.2l31,48.3l19.1-13.5c-0.2-0.5-0.4-1-0.4-1.6c0-0.6,0.1-1.1,0.4-1.6l-49.6-32
		C85.1,45.9,84.9,46.1,84.7,46.2z"/>
	<path class="st2" d="M545.8,16.5l26.5,5.3l12-33c-0.3-0.2-0.7-0.4-0.9-0.7l-38,26.6c0.3,0.5,0.4,1.1,0.4,1.7
		C545.8,16.4,545.8,16.4,545.8,16.5z"/>
	<path class="st2" d="M376,4.2l28.9,49.4c0.4-0.2,0.9-0.3,1.4-0.3c1.2,0,2.2,0.5,2.9,1.4L498.7-6c-0.2-0.4-0.4-0.8-0.4-1.3l0,0.1
		L377.4,1.5C377.3,2.6,376.8,3.5,376,4.2z"/>
	<path class="st2" d="M525.6,23l12.8-6c0-0.2-0.1-0.4-0.1-0.7c0-0.5,0.1-1,0.3-1.5L504.9-5.6c-0.1,0.1-0.1,0.1-0.2,0.2L525.6,23z"/>
	<path class="st2" d="M543.5,19.7l13.2,42.7c0,0,0.1,0,0.1,0c0.3,0,0.5,0,0.7,0.1l14.4-39.7l-26.4-5.2
		C545.2,18.6,544.4,19.3,543.5,19.7z"/>
	<path class="st2" d="M558.5,62.9c0.5,0.3,1,0.7,1.3,1.2L624,34.3c-0.1-0.3-0.2-0.7-0.2-1c0-0.1,0-0.1,0-0.2L573,23L558.5,62.9z"/>
	<path class="st2" d="M626.5,36.7l-40,67.1l38.2,50.2c0.4-0.2,0.8-0.4,1.3-0.4l1.4-116.7C627.1,36.9,626.8,36.8,626.5,36.7z"/>
	<path class="st2" d="M571.1,121.2l-32.7-36.6L500,121.4c0.3,0.5,0.6,1,0.6,1.6h69.6C570.4,122.3,570.7,121.7,571.1,121.2z"/>
	<path class="st2" d="M432.9,137.3l-69.5-27.5c-0.6,1.1-1.8,1.9-3.2,1.9c-0.4,0-0.8-0.1-1.2-0.2l-18,34.7l91.9-8.6
		C432.9,137.5,432.9,137.4,432.9,137.3z"/>
	<path class="st2" d="M494.7,39.9c-0.5-0.4-0.9-0.9-1.1-1.5l-1.9,0.4L409.9,57c0,0.7-0.2,1.3-0.5,1.9l51.5,37.4L494.7,39.9z"/>
	<path class="st2" d="M496,119.6V40.7c-0.3,0-0.6-0.1-0.9-0.2L461.3,97l32.6,23.7C494.5,120.1,495.2,119.7,496,119.6z"/>
	<path class="st2" d="M408.7,59.8c-0.2,0.2-0.5,0.4-0.8,0.5l27.8,74.2c0.2-0.1,0.5-0.1,0.8-0.1c0.5,0,1,0.1,1.4,0.3l22.4-37.4
		L408.7,59.8z"/>
	<path class="st2" d="M555,62.9c0.2-0.1,0.4-0.2,0.6-0.2L542.4,20c-0.1,0-0.2,0-0.3,0c-1.4,0-2.7-0.8-3.3-2l-12.5,5.9L555,62.9z"/>
	<path class="st2" d="M158,154.6c0.2,0.2,0.3,0.3,0.5,0.5l43.2-22.5c-0.1-0.4-0.2-0.8-0.2-1.2c0-0.7,0.2-1.3,0.5-1.8l-17.3-13.5
		L158,154.6z"/>
	<path class="st2" d="M271.2,16.3c0,0.4-0.1,0.7-0.2,1.1l31.5,14.8l26.8-67.2c-0.2-0.1-0.4-0.3-0.6-0.4l-58.1,49.8
		C271,14.9,271.2,15.6,271.2,16.3z"/>
	<path class="st2" d="M231.5,53.2c0,0.5-0.1,0.9-0.3,1.3L280,80.3c0.4-0.6,1-1,1.6-1.3L267.8,20c-0.1,0-0.2,0-0.3,0
		c-0.9,0-1.7-0.3-2.3-0.8l-34.4,31.9C231.2,51.7,231.5,52.5,231.5,53.2z"/>
	<path class="st2" d="M353.8,56.2c0.4-0.6,1-1.1,1.6-1.4l-23.8-89.5c-0.1,0-0.3,0-0.4,0c-0.3,0-0.6,0-0.9-0.1l-26.9,67.3L353.8,56.2
		z"/>
	<path class="st2" d="M202.6,128.7c0.7-0.6,1.6-1,2.6-1c0.2,0,0.3,0,0.5,0L226,56.5c0,0,0,0-0.1,0l-40.7,58.7L202.6,128.7z"/>
	<path class="st2" d="M409.8,56l63.1-14.1l20.4-4.6c0-0.1,0-0.2,0-0.3c0-2,1.6-3.6,3.6-3.7l4.4-37.4c-0.8-0.1-1.4-0.5-1.9-1
		l-89.6,60.8C409.7,55.7,409.8,55.8,409.8,56z"/>
	<path class="st2" d="M500.6,35.9c0.1,0.3,0.2,0.7,0.2,1.1c0,0.4-0.1,0.8-0.2,1.1l53.3,25.8c0.1-0.1,0.2-0.3,0.3-0.4l-28.9-39.2
		L500.6,35.9z"/>
	<path class="st2" d="M336-33.1l34.4,43.6l1.7-5.9C370.8,4,370,2.8,370,1.3c0-0.8,0.2-1.5,0.7-2.1L336-33.1z"/>
	<path class="st3" d="M-2.8,121.6c0.8,0.2,1.5,0.2,2.2-0.1l20.2,44.9c-1.2,0.8-2,2.3-1.6,3.9c0.3,1.4,1.4,2.6,2.8,2.9
		c1.9,0.4,3.6-0.6,4.2-2.2l83,21.5c-0.1,1,0.1,2,1.4,3.2c0.5,0.4,1,0.7,1.7,0.8c2.3,0.4,4.3-1.4,4.3-3.7c0-0.3,0-0.5-0.1-0.7
		l44.8-16.4c0.8,1.4,2.4,2.2,4.2,1.8c1.3-0.3,2.4-1.4,2.7-2.7c0.3-1.2,0-2.3-0.6-3.1l36.9-37.2c0.6,0.5,1.4,0.7,2.2,0.7
		c0.9,0,1.7-0.3,2.4-0.8l91.9,82.8c-0.6,0.8-0.8,1.9-0.5,3c0.3,1.3,1.4,2.3,2.7,2.6c2.4,0.6,4.6-1.3,4.6-3.6c0-0.5-0.1-1-0.3-1.5
		L433.1,139c0.3,1.8,1.8,3.1,3.6,3.1c0.3,0,0.6-0.1,0.8-0.3c2.7-1.6,2.9-2.8,2.8-3.8l53.4-13.1c0.6,1.3,1.9,2.3,3.4,2.3
		c1.9,0,3.4-1.4,3.7-3.2h69.6c0.3,1.8,1.8,3.2,3.7,3.2c1.1,0,2.1-0.5,2.8-1.2l46.1,30.1c-0.3,0.7-0.4,1.6-0.2,2.5
		c0.3,1.3,1.4,2.4,2.8,2.7c2.4,0.5,4.5-1.3,4.5-3.6c0-1.9-1.4-3.4-3.2-3.7l1.4-116.7c2.1-0.3,3.6-2.3,3.1-4.5
		c-0.3-1.3-1.3-2.4-2.6-2.7c-1.1-0.3-2.2-0.1-3,0.4l-36.8-42.3c0.7-0.8,1.1-2,0.8-3.3c-0.3-1.4-1.4-2.5-2.7-2.8
		c-2.4-0.5-4.6,1.3-4.6,3.6c0,0.6,0.1,1.2,0.4,1.7L545,14c-0.7-0.7-1.6-1.2-2.7-1.2c-1.1,0-2.1,0.5-2.8,1.3L505.7-6.3
		c0.3-0.7,0.3-1.5,0-2.4c-0.4-1.3-1.5-2.2-2.8-2.5c-2.4-0.5-4.4,1.3-4.4,3.6l0-0.5L377.6,0.7c-0.4-1.7-1.8-2.9-3.6-2.9
		c-0.9,0-1.7,0.3-2.3,0.8L334.5-36c0.6-0.8,0.8-1.9,0.5-3.1c-0.3-1.3-1.4-2.3-2.7-2.6c-2.4-0.6-4.6,1.3-4.6,3.6c0,0.7,0.2,1.4,0.6,2
		l-58.1,49.8c-0.8-0.7-2-1.1-3.3-0.8c-1.3,0.3-2.4,1.3-2.7,2.6c-0.3,1.1-0.1,2.2,0.5,3.1l-34.4,31.9c-0.6-0.5-1.4-0.8-2.3-0.8
		c-0.5,0-1,0.2-1.4,0.5c-2.2,1.6-2.4,2.7-2.3,3.7l-82.6,24c-0.6-1.2-1.9-2.1-3.3-2.1c-1.1,0-2.1,0.5-2.7,1.2l-49.6-32
		c0.4-0.7,0.5-1.6,0.2-2.5c-0.3-1.3-1.4-2.4-2.7-2.7c-2.4-0.5-4.4,1.2-4.5,3.4l-68,13.8c-0.7-1.5-2.4-2.4-4.2-2
		c-1.4,0.3-2.5,1.4-2.8,2.8c-0.4,1.9,0.6,3.6,2.1,4.2l-8.1,52.3c-2.3,0-4.1,2.1-3.6,4.5C-5.1,120.2-4.1,121.3-2.8,121.6z M373.7,5
		c0.5,0,1-0.1,1.4-0.3l26.8,45.8l-30.6-38.9l2-6.7C373.3,5,373.5,5,373.7,5z M503.9-4.6l20.7,28.1l-24.5,11.5
		c-0.5-0.7-1.2-1.3-2.1-1.5l4.4-37.5C502.9-4.2,503.4-4.4,503.9-4.6z M586-10.8c0.7,0,1.4-0.2,2-0.6l36.8,42.3
		c-0.3,0.3-0.5,0.7-0.7,1.2L573.4,22l11.9-32.9C585.5-10.8,585.8-10.8,586-10.8z M114,189.9c-0.7-0.6-1.5-1-2.5-1
		c-0.8,0-1.6,0.3-2.3,0.8l-51.1-49.5c0.1-0.2,0.2-0.3,0.3-0.5l83.7,27.6L114,189.9z M80.5,46.3l-24.9,88.1c-0.2,0-0.3,0-0.5,0
		c-0.5,0-1,0.1-1.4,0.3l-25.9-43l51.9-46C80,46,80.2,46.2,80.5,46.3z M52,140.2l-7.8,7.2L2,119.5l49.4,17.9c0,0.2-0.1,0.5-0.1,0.7
		C51.4,138.9,51.6,139.6,52,140.2z M52.8,141c0.6,0.5,1.4,0.8,2.3,0.8c0.8,0,1.6-0.3,2.3-0.8l49.5,47.9L45.2,148L52.8,141z
		 M63.2,140.2l88.6,16.9c0,0.1,0,0.1,0,0.2c0,0.7,0.2,1.3,0.5,1.9l-9.2,7.4L63.2,140.2z M153,160c0.7,0.6,1.5,1,2.5,1
		c0.4,0,0.7-0.1,1-0.2l4.6,9.8c-0.5,0.4-1,0.8-1.3,1.4l-15.5-5.1L153,160z M163.1,170.1c-0.4,0-0.7,0.1-1,0.2l-4.6-9.8
		c1-0.7,1.7-1.8,1.7-3.1c0-0.4-0.1-0.8-0.2-1.2l43.2-22.5c0,0,0,0,0,0l-36.9,37.2C164.7,170.3,164,170.1,163.1,170.1z M270.6,18.4
		l31.5,14.8l-18.3,45.8c-0.3-0.1-0.6-0.1-0.9-0.1c-0.1,0-0.2,0-0.3,0l-13.8-59.1C269.6,19.5,270.2,19,270.6,18.4z M625.2,36.2
		l-39.8,66.7l-26-34.2c0.7-0.7,1.1-1.6,1.1-2.6c0-0.4-0.1-0.7-0.2-1l64.2-29.8C624.7,35.6,625,35.9,625.2,36.2z M623.4,154.9
		l-46.1-30.1c0.2-0.5,0.3-1,0.3-1.5c0-1.2-0.5-2.2-1.4-2.9l9.2-15.5l38,49.9C623.5,154.8,623.5,154.8,623.4,154.9z M539.2,83.5
		l15.1-14.5c0.7,0.6,1.5,0.9,2.4,0.9c0.2,0,0.4,0,0.5,0l15.1,50.1c-0.2,0.1-0.3,0.2-0.5,0.3L539.2,83.5z M499.7,120.3
		c-0.5-0.4-1.1-0.6-1.7-0.7V40.7c0.5-0.1,1-0.3,1.5-0.6l38.6,43.3L499.7,120.3z M208.6,129.9l51-32l36.7,50.1
		c-0.4,0.4-0.7,0.8-0.9,1.4l-86.5-17.8c0-0.1,0-0.1,0-0.2C208.9,130.9,208.8,130.4,208.6,129.9z M402.7,57.9
		c0.2,0.6,0.5,1.1,0.9,1.6l-21.8,23.9l-22.5-22.2c0.8-0.6,1.3-1.5,1.4-2.6L402.7,57.9z M298.8,146.9c-0.1,0-0.2,0-0.3,0l-13.9-59.8
		l-0.3-1.1c0.8-0.3,1.5-1,1.9-1.8L330,98.5l-29.7,48.7C299.8,147,299.4,146.9,298.8,146.9z M286.6,83.2c0-0.2,0.1-0.4,0.1-0.6
		c0-0.2,0-0.4-0.1-0.7l66.8-22.4c0.1,0.2,0.1,0.4,0.2,0.5l-23,37.6L286.6,83.2z M354.3,60.9c0.2,0.2,0.5,0.4,0.8,0.6l2.5,25.9
		l1.6,16.9c-1,0.3-1.9,0.9-2.4,1.9l-25.2-8.3L354.3,60.9z M362.2,104.8c-0.5-0.3-1.2-0.6-1.8-0.6l-1.7-17.1l-2.4-25.2
		c0.2,0,0.5,0.1,0.7,0.1c0.4,0,0.8-0.1,1.2-0.2L381,84.2L362.2,104.8z M283,86.2c0.1,0,0.2,0,0.3,0l14.2,60.9
		c-0.1,0-0.2,0.1-0.4,0.2l-36.6-50l19.7-12.4C280.9,85.7,281.9,86.2,283,86.2z M301.2,147.8l29.9-48.9l25.4,8.3
		c0,0.2-0.1,0.5-0.1,0.7c0,0.6,0.1,1.1,0.4,1.6l-55.3,38.6C301.4,148,301.3,147.9,301.2,147.8z M363,105.5L381.7,85l51.8,51
		c-0.1,0.1-0.1,0.2-0.2,0.3l-69.6-27.6c0.1-0.2,0.1-0.5,0.1-0.8C363.8,107,363.5,106.2,363,105.5z M382.5,84.2l21.9-24
		c0.6,0.3,1.2,0.5,1.9,0.5c0.2,0,0.4,0,0.7-0.1l27.8,74.2c-0.2,0.1-0.3,0.2-0.4,0.3L382.5,84.2z M573.9,119.5c-0.2,0-0.4,0-0.5,0
		L562,81.6l-3.7-12.1c0.1,0,0.1-0.1,0.2-0.1l26.3,34.5l-9.5,15.9C574.9,119.6,574.4,119.5,573.9,119.5z M499.9,39.4
		c0.1-0.1,0.1-0.2,0.2-0.3L553.2,65c-0.1,0.4-0.2,0.7-0.2,1.1c0,0.7,0.2,1.4,0.6,2l-15.1,14.5L499.9,39.4z M402.6,56.8l-42,0.7
		c-0.2-1.2-1-2.2-2.1-2.7l12.3-42l32.7,41.6C403,55.1,402.6,55.9,402.6,56.8z M357.4,54.6c-0.2,0-0.3,0-0.5,0c-0.1,0-0.3,0-0.4,0
		l-23.8-89.5c0.1-0.1,0.2-0.1,0.4-0.2l37,46.9L357.4,54.6z M353.2,58.3l-66.9,22.5c-0.3-0.6-0.8-1.2-1.4-1.5l18.2-45.7l50.3,23.6
		C353.3,57.6,353.2,57.9,353.2,58.3C353.2,58.3,353.2,58.3,353.2,58.3z M279.6,84l-19.8,12.4L230.2,56c0.2-0.1,0.3-0.3,0.5-0.5
		l48.8,25.8c-0.1,0.4-0.2,0.8-0.2,1.2C279.3,83.1,279.4,83.6,279.6,84z M227.8,56.9c0.5,0,1.1-0.1,1.5-0.3L258.9,97L208,129
		c-0.3-0.4-0.8-0.7-1.3-1L227,56.9C227.3,56.9,227.5,56.9,227.8,56.9z M208.7,132.7l86.5,17.8c0,0.1,0,0.1,0,0.2
		c0,1.9,1.5,3.5,3.4,3.7l3.3,61.1c-0.6,0.1-1.2,0.4-1.6,0.8l-91.9-82.8C208.4,133.2,208.6,132.9,208.7,132.7z M302.9,215.4
		l-3.3-61.1c1.6-0.3,2.9-1.7,3-3.4l36.5-3.4l-35.3,68.1C303.5,215.5,303.2,215.4,302.9,215.4z M302.4,149.7
		c-0.1-0.3-0.2-0.5-0.3-0.8l55.2-38.5c0.2,0.2,0.4,0.4,0.6,0.5l-18.3,35.3L302.4,149.7z M358.9,111.4c0.4,0.1,0.8,0.2,1.2,0.2
		c1.4,0,2.6-0.8,3.2-1.9l69.5,27.5c0,0.1,0,0.2-0.1,0.3l-91.9,8.6L358.9,111.4z M436.5,134.4c-0.3,0-0.5,0-0.8,0.1l-27.8-74.2
		c0.3-0.1,0.5-0.3,0.8-0.5l51.6,37.5l-22.4,37.4C437.5,134.5,437,134.4,436.5,134.4z M409.4,58.9c0.3-0.6,0.5-1.2,0.5-1.9l81.7-18.3
		l1.9-0.4c0.2,0.6,0.6,1.1,1.1,1.5l-33.8,56.4L409.4,58.9z M495.1,40.4c0.3,0.1,0.6,0.2,0.9,0.2v78.9c-0.8,0.1-1.5,0.5-2.1,1.1
		L461.3,97L495.1,40.4z M500,121.4l38.4-36.9l32.7,36.6c-0.4,0.5-0.7,1.1-0.8,1.8h-69.6C500.6,122.4,500.4,121.9,500,121.4z
		 M624.4,154.1l-38.2-50.2l40-67.1c0.3,0.1,0.5,0.2,0.8,0.2l-1.4,116.7C625.2,153.7,624.8,153.9,624.4,154.1z M623.9,33.1
		c0,0.1,0,0.1,0,0.2c0,0.4,0.1,0.7,0.2,1l-64.2,29.8c-0.3-0.5-0.8-0.9-1.3-1.2L573,23L623.9,33.1z M557.5,62.5
		c-0.2,0-0.5-0.1-0.7-0.1c0,0-0.1,0-0.1,0l-13.2-42.7c1-0.4,1.7-1.2,2.1-2.2l26.4,5.2L557.5,62.5z M542.1,20c0.1,0,0.2,0,0.3,0
		l13.2,42.6c-0.2,0.1-0.4,0.1-0.6,0.2l-28.8-39l12.5-5.9C539.4,19.2,540.6,20,542.1,20z M554.2,63.5c-0.1,0.1-0.2,0.2-0.3,0.4
		l-53.3-25.8c0.1-0.3,0.2-0.7,0.2-1.1c0-0.4-0.1-0.7-0.2-1.1l24.7-11.6L554.2,63.5z M499.3-5.1c0.5,0.5,1.2,0.9,1.9,1l-4.4,37.4
		c-2,0.1-3.6,1.7-3.6,3.7c0,0.1,0,0.2,0,0.3l-20.4,4.6L409.8,56c0-0.1-0.1-0.2-0.1-0.3L499.3-5.1z M372.1,4.6l-1.7,5.9L336-33.1
		l34.6,32.3c-0.4,0.6-0.7,1.3-0.7,2.1C370,2.8,370.8,4,372.1,4.6z M331.2-34.6c0.1,0,0.3,0,0.4,0l23.8,89.5
		c-0.7,0.3-1.2,0.8-1.6,1.4l-50.3-23.6l26.9-67.3C330.6-34.6,330.9-34.6,331.2-34.6z M329.3-35.1l-26.8,67.2L271,17.4
		c0.1-0.3,0.2-0.7,0.2-1.1c0-0.7-0.2-1.4-0.6-2l58.1-49.8C328.9-35.3,329.1-35.2,329.3-35.1z M267.5,20c0.1,0,0.2,0,0.3,0l13.8,59.1
		c-0.7,0.3-1.2,0.7-1.6,1.3l-48.8-25.8c0.2-0.4,0.3-0.9,0.3-1.3c0-0.8-0.2-1.5-0.7-2.1l34.4-31.9C265.8,19.7,266.6,20,267.5,20z
		 M225.9,56.5C226,56.5,226,56.5,225.9,56.5l-20.3,71.2c-0.2,0-0.3,0-0.5,0c-1,0-1.9,0.4-2.6,1l-17.3-13.5L225.9,56.5z M202,129.6
		c-0.3,0.5-0.5,1.2-0.5,1.8c0,0.4,0.1,0.8,0.2,1.2l-43.2,22.5c-0.1-0.2-0.3-0.4-0.5-0.5l26.6-38.5L202,129.6z M157.1,154
		c-0.5-0.2-1-0.4-1.6-0.4c-0.1,0-0.2,0-0.3,0l-14.8-66.8l-0.9-4c0.5-0.2,0.9-0.5,1.3-0.8l43,33.5L157.1,154z M138.2,83
		c0.1,0,0.2,0,0.3,0l0.8,3.7l14.9,67.1c-0.1,0-0.1,0.1-0.2,0.1l-37.6-58.5l19.1-13.6C136.2,82.6,137.1,83,138.2,83z M153.1,154.5
		c-0.5,0.4-0.8,1-1.1,1.6l-93.2-17.8c0-0.1,0-0.1,0-0.2c0-0.6-0.1-1.2-0.4-1.7L115.5,96L153.1,154.5z M57.8,135.6
		c-0.3-0.3-0.7-0.6-1.2-0.8l24.9-87.9c0.3,0.1,0.7,0.1,1,0.1c0.4,0,0.8-0.1,1.2-0.2l31.1,48.4L57.8,135.6z M11.2,58.5
		c0-0.2,0-0.4,0-0.5l67.8-13.8c0.1,0.2,0.1,0.4,0.2,0.6L27.3,90.7L9.7,61.4C10.6,60.8,11.2,59.7,11.2,58.5z M52.8,135.3
		c-0.4,0.3-0.7,0.7-0.9,1.1L1.6,118.2c0-0.1,0-0.2,0-0.3c0-0.9-0.3-1.7-0.8-2.3L27,92.4L52.8,135.3z M0.1,120.8
		c0.3-0.2,0.6-0.5,0.8-0.8l42.5,28.2l-19.7,18.2c-0.6-0.5-1.4-0.8-2.3-0.8c-0.3,0-0.7,0.1-1,0.1L0.1,120.8z M25,169.7
		c0-0.1,0-0.3,0-0.4c0-0.8-0.2-1.5-0.6-2.1l19.9-18.4l63.8,42.3c0,0,0,0.1-0.1,0.1L25,169.7z M114.7,190.9
		C114.7,190.9,114.7,190.8,114.7,190.9l28.6-23.1l16.2,5.3c0,0.2-0.1,0.4-0.1,0.6c0,0.3,0,0.5,0.1,0.7L114.7,190.9z M305.4,216.7
		c-0.2-0.2-0.4-0.4-0.7-0.6l35.6-68.8l90.2-8.4L305.4,216.7z M439.9,136.7c-0.2-0.6-0.6-1.1-1.1-1.5l22.4-37.4l32.5,23.6
		c-0.3,0.5-0.4,1.1-0.4,1.7c0,0.1,0,0.2,0,0.3L439.9,136.7z M583.3-12c0.3,0.3,0.6,0.5,0.9,0.7l-12,33l-26.5-5.3c0-0.1,0-0.1,0-0.2
		c0-0.6-0.1-1.2-0.4-1.7L583.3-12z M538.7,14.8c-0.2,0.5-0.3,1-0.3,1.5c0,0.2,0,0.4,0.1,0.7l-12.8,6L504.7-5.3
		c0.1-0.1,0.1-0.1,0.2-0.2L538.7,14.8z M498.3-7.2L498.3-7.2c0.1,0.4,0.2,0.8,0.4,1.2l-89.5,60.7c-0.7-0.8-1.7-1.4-2.9-1.4
		c-0.5,0-1,0.1-1.4,0.3L376,4.2c0.8-0.6,1.3-1.6,1.4-2.6L498.3-7.2z M224.4,54.7c0.2,0.4,0.4,0.8,0.7,1.1l-40.7,58.7l-43-33.4
		c0.3-0.5,0.4-1.1,0.4-1.8c0-0.2,0-0.4,0-0.6L224.4,54.7z M134.9,77.7c-0.2,0.5-0.4,1-0.4,1.6c0,0.6,0.1,1.1,0.4,1.6l-19.1,13.5
		l-31-48.3c0.2-0.1,0.4-0.3,0.5-0.5L134.9,77.7z M7.4,62.2c0.4,0,0.9-0.1,1.2-0.2l17.7,29.5L0.1,114.8c-0.3-0.2-0.7-0.4-1.1-0.5
		l8-52.1C7.2,62.2,7.3,62.2,7.4,62.2z"/>
</g>
<g>
	<path class="st5" d="M25.7,91.6c-2.2,3-1.8,7.3,1,9.9l0.8,0.8c2.7,2.6,3.2,6.8,1,9.9c-2.7,3.7-7.9,4-11.1,1L-3.4,93.2
		c-3-2.8-7.7-2.7-10.5,0.2l0,0c-2.8,3-2.7,7.7,0.2,10.5l70,66.8c3,2.8,7.7,2.7,10.5-0.2v0c2.8-3,2.7-7.7-0.2-10.5l-1.8-1.8
		c-2.7-2.6-3.2-6.8-1-9.9c2.7-3.7,7.9-4,11.1-1l3.8,3.6l17.8,17c2.7,2.6,7,2.9,9.9,0.5c3.5-2.9,3.6-8.1,0.5-11.1l-70-66.8
		C33.7,87.6,28.4,88,25.7,91.6z"/>
	<path class="st5" d="M91.2-5.4c3-2.3,7.3-1.8,9.9,0.9l0.8,0.8c2.6,2.7,6.9,3.2,9.9,0.9c3.6-2.7,4-8,0.9-11.2L92.6-34.6
		c-2.8-2.9-2.8-7.7,0.2-10.5l0,0c2.9-2.8,7.7-2.8,10.5,0.2l67.5,69.7c2.8,2.9,2.8,7.7-0.2,10.5l0,0c-2.9,2.8-7.7,2.8-10.5-0.2
		l-1.8-1.8c-2.6-2.7-6.9-3.2-9.9-0.9c-3.6,2.7-4,8-0.9,11.2l3.7,3.8L168.4,65c2.6,2.7,2.9,7,0.6,9.9c-2.8,3.6-8.1,3.7-11.2,0.5
		L90.3,5.8C87.3,2.6,87.6-2.6,91.2-5.4z"/>
	<path class="st5" d="M107.7,51.9c-2.5,2.8-7.1,2.9-10.6,0.4L85.4,41.7c-3.6-3.3-8.9-3.4-11.6-0.4c-2.8,3.1-2,8.2,1.6,11.5L87,63.4
		c-0.3-0.2-0.7-0.5-1-0.8l17.9,16.1c3.6,3.3,4.3,8.5,1.6,11.5c-2.6,2.8-7.2,2.9-10.8,0.3L48.6,48.9c-3.6-3.3-8.9-3.4-11.6-0.4
		s-2,8.2,1.6,11.5l28.3,25.5c-0.3-0.2-0.6-0.4-0.8-0.7c3.6,3.3,4.3,8.5,1.6,11.5s-8,2.9-11.6-0.4L6.3,51.2L-30,18.4l-49.6-44.7
		c-3.6-3.3-4.3-8.5-1.6-11.5c2.8-3.1,8-2.9,11.6,0.4l4.8,4.3c0,0,0,0,0,0l-4.8-4.3c-3.6-3.3-4.3-8.5-1.6-11.5c0.9-1,2.1-1.7,3.4-2
		c0.2-1.3,0.7-2.6,1.6-3.6c0.9-1,2.1-1.7,3.4-2c0.2-1.3,0.7-2.6,1.6-3.6c2.8-3.1,8-2.9,11.6,0.4c-0.2-0.1-0.3-0.3-0.5-0.4l89.3,80.5
		c3.6,3.3,8.9,3.4,11.6,0.4s2-8.2-1.6-11.5l-95.4-86c2.8-3,8-2.9,11.6,0.4l43,38.8l0,0c2.8-3.1,8-2.9,11.6,0.4l86,77.6
		C109.7,43.6,110.4,48.8,107.7,51.9z"/>
</g>
<path class="st6" d="M626.9,239.6c2.3-2.9,2-7.2-0.6-9.9l-0.8-0.8c-2.6-2.7-3-6.9-0.6-9.9c2.8-3.6,8.1-3.8,11.1-0.6l20.2,20.5
	c2.9,2.9,7.6,3,10.5,0.1l0,0c2.9-2.9,3-7.6,0.1-10.5l-67.8-69c-2.9-2.9-7.6-3-10.5-0.1l0,0c-2.9,2.9-3,7.6-0.1,10.5l1.8,1.8
	c2.6,2.7,3,6.9,0.6,9.9c-2.8,3.6-8.1,3.8-11.1,0.6l-3.7-3.7l-17.3-17.6c-2.6-2.7-6.9-3.1-9.9-0.8c-3.6,2.7-3.9,8-0.8,11.1l67.8,69
	C618.8,243.3,624,243.1,626.9,239.6z"/>
<path class="st6" d="M689,331.5l-30.7-31.2c-0.3-0.7-0.8-1.3-1.3-1.8l-68.1-69.1c-2.9-2.9-7.6-3-10.5-0.1c-2.9,2.9-3,7.6-0.1,10.5
	l1.8,1.8c2.6,2.7,3,7,0.7,9.9c-2.8,3.6-8.1,3.8-11.2,0.6l-3.7-3.8l-17.3-17.6c-2.6-2.7-6.9-3.1-9.9-0.8c-3.6,2.8-3.9,8-0.8,11.2
	l30.7,31.2c0.3,0.7,0.8,1.3,1.3,1.8l68.1,69.1c3.1,3.1,8.4,2.9,11.2-0.6c2.3-3,2-7.2-0.7-9.9l-0.8-0.8c-2.6-2.7-3-7-0.7-9.9
	c2.8-3.6,8.1-3.8,11.2-0.6l20.3,20.6c2.9,2.9,7.6,3,10.5,0.1C691.8,339.1,691.9,334.4,689,331.5z"/>
<path class="st6" d="M463.2,282.9c3-2.9,8.1-2.6,11.8,0.4l12.1,12.5c3.7,3.9,9.5,4.5,12.8,1.3c3.3-3.2,2.9-8.9-0.8-12.8l-12.1-12.5
	c0.4,0.3,0.7,0.6,1,0.9l-18.5-19.2c-3.7-3.9-4.1-9.7-0.8-12.8c3-2.9,8.2-2.6,11.9,0.5l47.6,49.6c3.7,3.9,9.5,4.5,12.8,1.3
	c3.3-3.2,2.9-8.9-0.8-12.8L510.9,249c0.3,0.3,0.6,0.5,0.9,0.8c-3.7-3.9-4.1-9.7-0.8-12.8s9-2.6,12.8,1.3l51.2,53.3l37.6,39.1
	l51.2,53.3c3.7,3.9,4.1,9.7,0.8,12.8c-3.3,3.2-9,2.6-12.8-1.3l-4.9-5.1c0,0,0,0,0,0l4.9,5.1c3.7,3.9,4.1,9.7,0.8,12.8
	c-1.1,1-2.4,1.7-3.9,1.9c-0.3,1.5-1,2.8-2.1,3.8c-1.1,1-2.4,1.7-3.9,1.9c-0.3,1.5-1,2.8-2.1,3.8c-3.3,3.2-9,2.6-12.8-1.3
	c0.2,0.2,0.3,0.3,0.5,0.5L536.2,323c-3.7-3.9-9.5-4.5-12.8-1.3c-3.3,3.2-2.9,8.9,0.8,12.8L622.8,437c-3.3,3.1-9,2.5-12.8-1.4
	l-44.4-46.2l0,0c-3.3,3.2-9,2.6-12.8-1.3L464,295.7C460.3,291.8,459.9,286,463.2,282.9z"/>
<circle class="st6" cx="538.5" cy="152.5" r="7.5"/>
<circle class="st5" cx="180.5" cy="85.5" r="7.5"/>
<circle class="st5" cx="115.5" cy="63.5" r="7.5"/>
<circle class="st6" cx="566.5" cy="219.5" r="7.5"/>
<circle class="st6" cx="504.5" cy="227.5" r="7.5"/>
<circle class="st6" cx="459.5" cy="232.5" r="7.5"/>
<path class="st7" d="M23.7,94.6c-2.2,3-1.8,7.3,1,9.9l0.8,0.8c2.7,2.6,3.2,6.8,1,9.9c-2.7,3.7-7.9,4-11.1,1L-5.4,96.2
	c-3-2.8-7.7-2.7-10.5,0.2l0,0c-2.8,3-2.7,7.7,0.2,10.5l70,66.8c3,2.8,7.7,2.7,10.5-0.2v0c2.8-3,2.7-7.7-0.2-10.5l-1.8-1.8
	c-2.7-2.6-3.2-6.8-1-9.9c2.7-3.7,7.9-4,11.1-1l3.8,3.6l17.8,17c2.7,2.6,7,2.9,9.9,0.5c3.5-2.9,3.6-8.1,0.5-11.1l-70-66.8
	C31.7,90.6,26.4,91,23.7,94.6z"/>
<path class="st7" d="M89.2-2.4c3-2.3,7.3-1.8,9.9,0.9l0.8,0.8c2.6,2.7,6.9,3.2,9.9,0.9c3.6-2.7,4-8,0.9-11.2L90.6-31.6
	c-2.8-2.9-2.8-7.7,0.2-10.5l0,0c2.9-2.8,7.7-2.8,10.5,0.2l67.5,69.7c2.8,2.9,2.8,7.7-0.2,10.5l0,0c-2.9,2.8-7.7,2.8-10.5-0.2
	l-1.8-1.8c-2.6-2.7-6.9-3.2-9.9-0.9c-3.6,2.7-4,8-0.9,11.2l3.7,3.8L166.4,68c2.6,2.7,2.9,7,0.6,9.9c-2.8,3.6-8.1,3.7-11.2,0.5
	L88.3,8.8C85.3,5.6,85.6,0.4,89.2-2.4z"/>
<path class="st7" d="M105.7,54.9c-2.5,2.8-7.1,2.9-10.6,0.4L83.4,44.7c-3.6-3.3-8.9-3.4-11.6-0.4c-2.8,3.1-2,8.2,1.6,11.5L85,66.4
	c-0.3-0.2-0.7-0.5-1-0.8l17.9,16.1c3.6,3.3,4.3,8.5,1.6,11.5c-2.6,2.8-7.2,2.9-10.8,0.3L46.6,51.9c-3.6-3.3-8.9-3.4-11.6-0.4
	s-2,8.2,1.6,11.5l28.3,25.5c-0.3-0.2-0.6-0.4-0.8-0.7c3.6,3.3,4.3,8.5,1.6,11.5c-2.8,3.1-8,2.9-11.6-0.4L4.3,54.2L-32,21.4
	l-49.6-44.7c-3.6-3.3-4.3-8.5-1.6-11.5c2.8-3.1,8-2.9,11.6,0.4l4.8,4.3c0,0,0,0,0,0l-4.8-4.3c-3.6-3.3-4.3-8.5-1.6-11.5
	c0.9-1,2.1-1.7,3.4-2c0.2-1.3,0.7-2.6,1.6-3.6c0.9-1,2.1-1.7,3.4-2c0.2-1.3,0.7-2.6,1.6-3.6c2.8-3.1,8-2.9,11.6,0.4
	c-0.2-0.1-0.3-0.3-0.5-0.4l89.3,80.5c3.6,3.3,8.9,3.4,11.6,0.4s2-8.2-1.6-11.5l-95.4-86c2.8-3,8-2.9,11.6,0.4l43,38.8l0,0
	c2.8-3.1,8-2.9,11.6,0.4l86,77.6C107.7,46.6,108.4,51.8,105.7,54.9z"/>
<path class="st8" d="M624.9,242.6c2.3-2.9,2-7.2-0.6-9.9l-0.8-0.8c-2.6-2.7-3-6.9-0.6-9.9c2.8-3.6,8.1-3.8,11.1-0.6l20.2,20.5
	c2.9,2.9,7.6,3,10.5,0.1l0,0c2.9-2.9,3-7.6,0.1-10.5l-67.8-69c-2.9-2.9-7.6-3-10.5-0.1l0,0c-2.9,2.9-3,7.6-0.1,10.5l1.8,1.8
	c2.6,2.7,3,6.9,0.6,9.9c-2.8,3.6-8.1,3.8-11.1,0.6l-3.7-3.7l-17.3-17.6c-2.6-2.7-6.9-3.1-9.9-0.8c-3.6,2.7-3.9,8-0.8,11.1l67.8,69
	C616.8,246.3,622,246.1,624.9,242.6z"/>
<path class="st8" d="M687,334.5l-30.7-31.2c-0.3-0.7-0.8-1.3-1.3-1.8l-68.1-69.1c-2.9-2.9-7.6-3-10.5-0.1c-2.9,2.9-3,7.6-0.1,10.5
	l1.8,1.8c2.6,2.7,3,7,0.7,9.9c-2.8,3.6-8.1,3.8-11.2,0.6l-3.7-3.8l-17.3-17.6c-2.6-2.7-6.9-3.1-9.9-0.8c-3.6,2.8-3.9,8-0.8,11.2
	l30.7,31.2c0.3,0.7,0.8,1.3,1.3,1.8l68.1,69.1c3.1,3.1,8.4,2.9,11.2-0.6c2.3-3,2-7.2-0.7-9.9l-0.8-0.8c-2.6-2.7-3-7-0.7-9.9
	c2.8-3.6,8.1-3.8,11.2-0.6l20.3,20.6c2.9,2.9,7.6,3,10.5,0.1C689.8,342.1,689.9,337.4,687,334.5z"/>
<path class="st8" d="M461.2,285.9c3-2.9,8.1-2.6,11.8,0.4l12.1,12.5c3.7,3.9,9.5,4.5,12.8,1.3c3.3-3.2,2.9-8.9-0.8-12.8l-12.1-12.5
	c0.4,0.3,0.7,0.6,1,0.9l-18.5-19.2c-3.7-3.9-4.1-9.7-0.8-12.8c3-2.9,8.2-2.6,11.9,0.5l47.6,49.6c3.7,3.9,9.5,4.5,12.8,1.3
	c3.3-3.2,2.9-8.9-0.8-12.8L508.9,252c0.3,0.3,0.6,0.5,0.9,0.8c-3.7-3.9-4.1-9.7-0.8-12.8s9-2.6,12.8,1.3l51.2,53.3l37.6,39.1
	l51.2,53.3c3.7,3.9,4.1,9.7,0.8,12.8c-3.3,3.2-9,2.6-12.8-1.3l-4.9-5.1c0,0,0,0,0,0l4.9,5.1c3.7,3.9,4.1,9.7,0.8,12.8
	c-1.1,1-2.4,1.7-3.9,1.9c-0.3,1.5-1,2.8-2.1,3.8c-1.1,1-2.4,1.7-3.9,1.9c-0.3,1.5-1,2.8-2.1,3.8c-3.3,3.2-9,2.6-12.8-1.3
	c0.2,0.2,0.3,0.3,0.5,0.5L534.2,326c-3.7-3.9-9.5-4.5-12.8-1.3c-3.3,3.2-2.9,8.9,0.8,12.8L620.8,440c-3.3,3.1-9,2.5-12.8-1.4
	l-44.4-46.2l0,0c-3.3,3.2-9,2.6-12.8-1.3L462,298.7C458.3,294.8,457.9,289,461.2,285.9z"/>
<circle class="st9" cx="536.5" cy="155.5" r="7.5"/>
<circle class="st7" cx="178.5" cy="88.5" r="7.5"/>
<circle class="st7" cx="113.5" cy="66.5" r="7.5"/>
<circle class="st9" cx="564.5" cy="222.5" r="7.5"/>
<circle class="st9" cx="502.5" cy="230.5" r="7.5"/>
<circle class="st9" cx="457.5" cy="235.5" r="7.5"/>
<g class="st10">
	<path class="st11" d="M266,164.9c0,6.7,5.4,12.1,12.1,12.1h69.8c6.7,0,12.1-5.4,12.1-12.1V95.1c0-6.7-5.4-12.1-12.1-12.1h-69.8
		c-6.7,0-12.1,5.4-12.1,12.1V164.9L266,164.9z"/>
	<path class="st12" d="M303,123v-17h15c1.4,0,2.8,0.1,4.1,0.4c1.3,0.2,2.5,0.7,3.5,1.3c1,0.6,1.8,1.5,2.4,2.5
		c0.6,1.1,0.9,2.5,0.9,4.2c0,3.1-0.9,5.3-2.7,6.6c-1.8,1.4-4.2,2-7,2H303L303,123z M287,94v72h34.9c3.2,0,6.4-0.4,9.4-1.2
		c3.1-0.8,5.8-2.1,8.2-3.7c2.4-1.7,4.3-3.8,5.7-6.5c1.4-2.7,2.1-5.8,2.1-9.4c0-4.5-1.1-8.4-3.3-11.5c-2.2-3.2-5.5-5.4-9.9-6.7
		c3.2-1.5,5.7-3.5,7.3-5.9c1.6-2.4,2.5-5.4,2.5-9.1c0-3.4-0.6-6.2-1.7-8.5c-1.1-2.3-2.7-4.1-4.7-5.5c-2-1.4-4.4-2.4-7.3-3
		c-2.8-0.6-5.9-0.9-9.4-0.9H287L287,94z M303,154v-20h17.4c3.5,0,6.3,0.8,8.4,2.4c2.1,1.6,3.2,4.3,3.2,8c0,1.9-0.3,3.5-1,4.7
		c-0.6,1.2-1.5,2.2-2.6,2.9c-1.1,0.7-2.3,1.2-3.8,1.5c-1.4,0.3-2.9,0.5-4.5,0.5H303L303,154z"/>
</g>
<g class="st13">
	<rect x="385.5" y="35.4" class="st14" width="296.5" height="42.6"/>
	<path class="st11" d="M400.5,64.4h-1.1c-3,0-4.6-1.4-4.8-4.2c-0.6,0.3-1.3,0.5-2.2,0.5c-1,0-1.9-0.2-2.8-0.6
		c-1-0.5-1.5-1.3-1.5-2.2c0-1.6,0.7-2.9,2.2-3.9c0.6-0.4,1.8-1.2,3.5-2.3c0.4-0.3,0.8-0.9,1.3-1.6c0.3-0.5,0.7-0.7,1.1-0.7
		c0.9,0,1.3,0.6,1.3,1.9c0,0.5-0.1,1.3-0.2,2.3c-0.1,1-0.2,1.8-0.2,2.3c0,1.3,0.1,2.3,0.3,2.9c0.3,1.2,1,1.7,1.9,1.7h1.1V64.4z
		 M394.5,54.6c-0.3,0.2-1,0.7-2.1,1.3c-0.7,0.4-1.1,0.8-1.1,1.2c0,0.4,0.4,0.5,1.3,0.5c0.8,0,1.4-0.1,1.8-0.3c0-0.2,0-0.5,0-0.7
		C394.4,56,394.4,55.4,394.5,54.6z"/>
	<path class="st11" d="M409.7,64.4h-1.1c-2.1,0-3.5-0.7-4-2c-0.8,1.3-2.1,2-4,2h-1.1v-3.8h1.2c1.6,0,2.5-0.7,2.7-2.2
		c0.2-1,0.6-1.5,1.4-1.5c0.8,0,1.2,0.5,1.3,1.5c0.2,1.4,1,2.2,2.5,2.2h1.1V64.4z M404.2,52.5c0,0.5-0.2,1-0.5,1.3
		c-0.4,0.4-0.8,0.5-1.3,0.5c-0.5,0-0.9-0.2-1.3-0.5c-0.4-0.4-0.5-0.8-0.5-1.3c0-0.5,0.2-1,0.5-1.3c0.4-0.4,0.8-0.5,1.3-0.5
		s1,0.2,1.3,0.5C404,51.6,404.2,52,404.2,52.5z M408.7,52.5c0,0.5-0.2,1-0.5,1.3c-0.4,0.4-0.8,0.5-1.3,0.5c-0.5,0-0.9-0.2-1.3-0.5
		c-0.4-0.4-0.5-0.8-0.5-1.3c0-0.5,0.2-1,0.5-1.3c0.4-0.4,0.8-0.5,1.3-0.5s1,0.2,1.3,0.5C408.5,51.6,408.7,52,408.7,52.5z"/>
	<path class="st11" d="M418.7,58c0,4.3-2.7,6.4-8,6.4h-1.9v-3.8h2.4c3.4,0,5.1-0.8,5-2.3c-0.2,0.2-0.6,0.5-1.2,0.7
		c-0.6,0.2-1.1,0.3-1.5,0.3c-1.2,0-2.1-0.4-2.8-1.2c-0.5-0.6-0.7-1.3-0.7-2.1c0-1.3,0.3-2.5,0.9-3.6c0.8-1.4,1.8-2.2,3.2-2.2
		c1.6,0,2.8,0.9,3.6,2.8C418.4,54.5,418.7,56.2,418.7,58z M415.4,46.3c0,0.5-0.2,1-0.5,1.3c-0.4,0.4-0.8,0.5-1.3,0.5s-1-0.2-1.3-0.5
		c-0.4-0.4-0.5-0.8-0.5-1.3s0.2-1,0.5-1.3c0.4-0.4,0.8-0.5,1.3-0.5s1,0.2,1.3,0.5C415.2,45.3,415.4,45.8,415.4,46.3z M415.5,55.3
		c0-0.5-0.2-0.9-0.5-1.2c-0.3-0.3-0.7-0.5-1.1-0.5c-0.3,0-0.6,0.2-0.9,0.5s-0.4,0.7-0.4,1c0,0.8,0.4,1.2,1.2,1.2
		C414.9,56.3,415.5,56,415.5,55.3z"/>
	<path class="st11" d="M436.1,64.4H435c-1.2,0-2.1-0.4-2.7-1.1c-0.8,2-1.9,3.7-3.5,5.1c-1.3,1.2-3.1,2.2-5.4,3.1
		c-0.3,0.1-0.6,0.2-0.9,0.2c-0.4,0-0.8-0.1-1.1-0.4c-0.3-0.3-0.4-0.6-0.4-1c0-0.8,0.5-1.4,1.4-1.8c1.9-0.9,3.4-1.7,4.4-2.5
		c1.5-1.2,2.5-2.5,2.8-4c0-0.2,0.1-0.4,0.1-0.6c0-0.8-0.2-1.8-0.5-2.8c-0.1-0.2-0.1-0.4-0.1-0.6c0-0.5,0.2-0.8,0.5-1.1
		s0.7-0.5,1.1-0.5c0.7-0.1,1.2,0.3,1.6,1.2c0,0.1,0.3,0.7,0.9,2c0.5,0.7,1.4,1.1,2.5,1.1h0.5V64.4z"/>
	<path class="st11" d="M457.2,64.4h-0.9c-1.5,0-2.6-0.6-3.3-1.8c-0.6,1.2-1.7,1.8-3.3,1.8c-1.6,0-2.8-0.6-3.4-1.9
		c-0.6,1.3-1.6,1.9-3.1,1.9c-1.9,0-3.2-0.6-3.8-1.8c-0.7,1.2-1.8,1.8-3.3,1.8h-0.9v-3.8h0.6c1.3,0,2.1-0.7,2.3-2
		c0.2-1,0.6-1.5,1.4-1.5s1.2,0.5,1.3,1.5c0.2,1.3,0.9,2,2.1,2c1.2,0,1.9-0.6,2.1-1.9c0.2-1.1,0.7-1.6,1.5-1.6c0.8,0,1.2,0.5,1.3,1.5
		c0.2,1.3,0.8,2,1.9,2c1.2,0,1.9-0.7,2.1-2c0.1-1,0.6-1.5,1.3-1.5c0.7,0,1.2,0.5,1.4,1.5c0.2,1.3,1,2,2.2,2h0.6V64.4z M441.8,52.3
		c0-0.5,0.2-0.9,0.5-1.3c0.4-0.4,0.8-0.5,1.3-0.5c0.5,0,1,0.2,1.3,0.5c0.4,0.4,0.5,0.8,0.5,1.3s-0.2,1-0.5,1.3
		c-0.4,0.4-0.8,0.5-1.3,0.5s-1-0.2-1.3-0.5C442,53.2,441.8,52.8,441.8,52.3z M444.1,48.3c0-0.5,0.2-1,0.5-1.3
		c0.4-0.4,0.8-0.5,1.3-0.5s1,0.2,1.3,0.5c0.4,0.4,0.5,0.8,0.5,1.3s-0.2,1-0.5,1.3c-0.4,0.4-0.8,0.5-1.3,0.5s-1-0.2-1.3-0.5
		C444.2,49.3,444.1,48.9,444.1,48.3z M446.3,52.3c0-0.5,0.2-0.9,0.5-1.3c0.4-0.4,0.8-0.5,1.3-0.5c0.5,0,1,0.2,1.3,0.5
		c0.4,0.4,0.5,0.8,0.5,1.3s-0.2,1-0.5,1.3s-0.8,0.5-1.3,0.5s-1-0.2-1.3-0.5S446.3,52.8,446.3,52.3z"/>
	<path class="st11" d="M466.5,64.4h-1.1c-2.1,0-3.5-0.7-4-2c-0.8,1.3-2.1,2-4,2h-1.1v-3.8h1.2c1.6,0,2.5-0.7,2.7-2.2
		c0.2-1,0.6-1.5,1.4-1.5c0.8,0,1.2,0.5,1.3,1.5c0.2,1.4,1,2.2,2.5,2.2h1.1V64.4z M461,69.5c0,0.5-0.2,1-0.5,1.3
		c-0.4,0.4-0.8,0.5-1.3,0.5s-1-0.2-1.3-0.5s-0.5-0.8-0.5-1.3c0-0.5,0.2-0.9,0.5-1.3c0.4-0.4,0.8-0.5,1.3-0.5c0.5,0,1,0.2,1.3,0.5
		C460.8,68.5,461,69,461,69.5z M465.4,69.5c0,0.5-0.2,1-0.5,1.3c-0.4,0.4-0.8,0.5-1.3,0.5s-1-0.2-1.3-0.5c-0.4-0.4-0.5-0.8-0.5-1.3
		s0.2-1,0.5-1.3c0.4-0.4,0.8-0.5,1.3-0.5s1,0.2,1.3,0.5C465.3,68.5,465.4,69,465.4,69.5z"/>
	<path class="st11" d="M472.5,58.6c0,1.8-0.5,3.2-1.5,4.3c-1,1-2.4,1.6-4.2,1.6h-1.3v-3.8h1.5c1.6,0,2.4-0.6,2.4-1.7
		c0-0.3-0.1-0.8-0.2-1.4c-0.2-0.6-0.2-1.1-0.2-1.4c0-0.4,0.1-0.8,0.4-1.1c0.3-0.3,0.6-0.5,1.1-0.5C471.9,54.6,472.5,55.9,472.5,58.6
		z M470,68.5c0,0.5-0.2,1-0.5,1.3c-0.4,0.4-0.8,0.5-1.3,0.5s-1-0.2-1.3-0.5c-0.4-0.4-0.5-0.8-0.5-1.3s0.2-1,0.5-1.3
		c0.4-0.4,0.8-0.5,1.3-0.5s1,0.2,1.3,0.5S470,68,470,68.5z M472.2,72.4c0,0.5-0.2,1-0.5,1.3c-0.4,0.4-0.8,0.5-1.3,0.5
		s-1-0.2-1.3-0.5c-0.4-0.4-0.5-0.8-0.5-1.3c0-0.5,0.2-0.9,0.5-1.3c0.4-0.4,0.8-0.5,1.3-0.5c0.5,0,1,0.2,1.3,0.5
		C472.1,71.5,472.2,71.9,472.2,72.4z M474.5,68.5c0,0.5-0.2,1-0.5,1.3c-0.4,0.4-0.8,0.5-1.3,0.5s-1-0.2-1.3-0.5
		c-0.4-0.4-0.5-0.8-0.5-1.3s0.2-1,0.5-1.3c0.4-0.4,0.8-0.5,1.3-0.5s1,0.2,1.3,0.5C474.3,67.5,474.5,68,474.5,68.5z"/>
	<path class="st11" d="M490.7,64.4h-1.1c-2.1,0-3.6-0.8-4.3-2.3c-0.4-0.9-0.7-2.7-0.8-5.2l-0.4-10.2c0-0.6,0.1-1.1,0.4-1.5
		c0.3-0.5,0.7-0.7,1.3-0.7c1.1,0,1.6,0.7,1.6,2.2v10.8c0,2.1,0.8,3.1,2.5,3.1h0.7V64.4z"/>
	<path class="st11" d="M496.8,58.6c0,1.8-0.5,3.2-1.5,4.3c-1,1-2.4,1.6-4.2,1.6h-1.3v-3.8h1.5c1.6,0,2.4-0.6,2.4-1.7
		c0-0.3-0.1-0.8-0.2-1.4c-0.2-0.6-0.2-1.1-0.2-1.4c0-0.4,0.1-0.8,0.4-1.1c0.3-0.3,0.6-0.5,1.1-0.5C496.1,54.6,496.8,55.9,496.8,58.6
		z M494.1,50.7c0,0.5-0.2,1-0.5,1.3s-0.8,0.5-1.3,0.5s-1-0.2-1.3-0.5s-0.5-0.8-0.5-1.3s0.2-1,0.5-1.3s0.8-0.5,1.3-0.5s1,0.2,1.3,0.5
		S494.1,50.2,494.1,50.7z M498.6,50.7c0,0.5-0.2,1-0.5,1.3c-0.4,0.4-0.8,0.5-1.3,0.5s-1-0.2-1.3-0.5c-0.4-0.4-0.5-0.8-0.5-1.3
		s0.2-1,0.5-1.3c0.4-0.4,0.8-0.5,1.3-0.5c0.5,0,0.9,0.2,1.3,0.5C498.4,49.7,498.6,50.2,498.6,50.7z"/>
	<path class="st11" d="M526.7,64.4h-5.1c-1.1,0-1.7,0.1-1.7,0.2c0,0.1,0.4,0.3,1.2,0.5c1.5,0.3,2.2,0.5,2.3,0.5
		c0.9,0.4,1.4,1.1,1.4,2c0,1.4-0.9,2.9-2.6,4.3c-1.9,1.6-4,2.4-6.4,2.4c-5,0-7.5-2.5-7.5-7.4c0-1.2,0.1-2.3,0.4-3.2
		c0.4-1.3,1-1.9,1.9-1.9s1.3,0.5,1.3,1.4c0,0.3-0.1,0.8-0.2,1.5c-0.2,0.6-0.2,1.1-0.2,1.5c0,1.6,0.3,2.8,0.8,3.4
		c0.7,0.8,1.9,1.2,3.8,1.2c1.5,0,2.9-0.3,4-0.9c1-0.5,1.5-1,1.5-1.5c0-0.1-0.4-0.3-1.2-0.4c-1-0.1-1.7-0.3-2.2-0.5
		c-0.8-0.4-1.1-1-1.1-1.8c0-1.7,0.8-3,2.3-3.9c1.3-0.8,2.8-1.2,4.6-1.2h2.8V64.4z"/>
	<path class="st11" d="M532.8,58.6c0,1.8-0.5,3.2-1.5,4.3c-1,1-2.4,1.6-4.2,1.6h-1.3v-3.8h1.5c1.6,0,2.4-0.6,2.4-1.7
		c0-0.3-0.1-0.8-0.2-1.4c-0.2-0.6-0.2-1.1-0.2-1.4c0-0.4,0.1-0.8,0.4-1.1c0.3-0.3,0.6-0.5,1.1-0.5C532.1,54.6,532.8,55.9,532.8,58.6
		z M530.1,50.7c0,0.5-0.2,1-0.5,1.3s-0.8,0.5-1.3,0.5s-1-0.2-1.3-0.5s-0.5-0.8-0.5-1.3s0.2-1,0.5-1.3s0.8-0.5,1.3-0.5s1,0.2,1.3,0.5
		S530.1,50.2,530.1,50.7z M534.6,50.7c0,0.5-0.2,1-0.5,1.3c-0.4,0.4-0.8,0.5-1.3,0.5s-1-0.2-1.3-0.5c-0.4-0.4-0.5-0.8-0.5-1.3
		s0.2-1,0.5-1.3c0.4-0.4,0.8-0.5,1.3-0.5c0.5,0,0.9,0.2,1.3,0.5C534.4,49.7,534.6,50.2,534.6,50.7z"/>
	<path class="st11" d="M543.9,64.4h-1.1c-2.1,0-3.6-0.8-4.3-2.3c-0.4-0.9-0.7-2.7-0.8-5.2l-0.4-10.2c0-0.6,0.1-1.1,0.4-1.5
		c0.3-0.5,0.7-0.7,1.3-0.7c1.1,0,1.6,0.7,1.6,2.2v10.8c0,2.1,0.8,3.1,2.5,3.1h0.7V64.4z"/>
	<path class="st11" d="M554.3,60.4c0,1.2-0.3,2.2-1,3c-0.7,0.9-1.6,1.4-2.8,1.4c-1.5,0-2.7-0.6-3.6-1.7c-0.8,0.8-1.8,1.2-3,1.2h-1
		v-3.8h0.6c0.6,0,1.1-0.1,1.4-0.3c0.3-0.2,0.7-0.5,1-1.1c0.8-1.2,1.3-1.8,1.5-2.1c1-1.1,2-1.6,3-1.6c1.2,0,2.2,0.5,2.8,1.6
		C554,58.1,554.3,59.1,554.3,60.4z M551.8,60.6c0-0.5-0.1-0.8-0.3-1.2c-0.2-0.4-0.6-0.6-1-0.6s-0.8,0.2-1.2,0.6
		c-0.4,0.4-0.6,0.8-0.6,1.2c0,0.3,0.2,0.6,0.7,0.9c0.4,0.2,0.8,0.3,1.2,0.3C551.3,61.7,551.8,61.4,551.8,60.6z"/>
	<path class="st11" d="M572.1,64.4H571c-1.8,0-3-0.5-3.6-1.4c-0.6,1.1-2.1,1.8-4.4,2.3c-1.2,0.2-2.2,0.4-3,0.4c-1.9,0-2.9-0.6-3-1.9
		c-0.1-1,0.6-1.6,2.2-1.7c4.2-0.3,6.1-1,5.9-2.1c-0.1-0.6-0.4-1.3-1-2.2c-0.3-0.4-0.8-1.2-1.5-2.4c-0.5-0.9-0.8-1.6-0.8-2.2
		c0-1,0.5-1.6,1.6-1.6c0.2,0,0.3,0,0.5,0.1c0.7,0.2,2.1,2.2,4,6.1c0.5,1,0.9,1.7,1.3,2c0.5,0.5,1.3,0.8,2.2,0.8h0.7V64.4z"/>
	<path class="st11" d="M583.2,64.4h-1.9c-0.6,0-1.3-0.1-2.2-0.3c-1-0.2-1.6-0.5-2-0.8c-1,0.8-2.5,1.1-4.2,1.1h-1.8v-3.8h2.9
		c-0.6-0.8-1-1.7-1-2.6c0-1.2,0.5-2.3,1.4-3.4c1-1.2,2-1.7,3.2-1.7c1.2,0,2.2,0.5,2.9,1.4c0.6,0.9,0.9,1.9,0.9,3.2
		c0,1.4-0.4,2.4-1.3,3.1h3.1V64.4z M577,48.9c0,0.5-0.2,1-0.5,1.3c-0.4,0.4-0.8,0.5-1.3,0.5c-0.5,0-0.9-0.2-1.3-0.5
		c-0.4-0.4-0.5-0.8-0.5-1.3c0-0.5,0.2-1,0.5-1.3s0.8-0.5,1.3-0.5s1,0.2,1.3,0.5C576.8,48,577,48.4,577,48.9z M578.9,58
		c0-0.4-0.1-0.8-0.4-1.1s-0.6-0.5-1-0.5c-0.4,0-0.8,0.2-1.2,0.6c-0.4,0.4-0.6,0.8-0.6,1.2c0,0.4,0.2,0.7,0.5,1
		c0.3,0.3,0.7,0.4,1.1,0.4c0.4,0,0.7-0.2,1-0.5C578.7,58.7,578.9,58.3,578.9,58z M581.5,48.9c0,0.5-0.2,1-0.5,1.3
		c-0.4,0.4-0.8,0.5-1.3,0.5c-0.5,0-0.9-0.2-1.3-0.5c-0.4-0.4-0.5-0.8-0.5-1.3c0-0.5,0.2-1,0.5-1.3c0.4-0.4,0.8-0.5,1.3-0.5
		s1,0.2,1.3,0.5C581.3,48,581.5,48.4,581.5,48.9z"/>
	<path class="st11" d="M593.7,60.4c0,1.2-0.3,2.2-1,3c-0.7,0.9-1.6,1.4-2.8,1.4c-1.5,0-2.7-0.6-3.6-1.7c-0.8,0.8-1.8,1.2-3,1.2h-1
		v-3.8h0.6c0.6,0,1.1-0.1,1.4-0.3c0.3-0.2,0.7-0.5,1-1.1c0.8-1.2,1.3-1.8,1.5-2.1c1-1.1,2-1.6,3-1.6c1.2,0,2.2,0.5,2.8,1.6
		C593.4,58.1,593.7,59.1,593.7,60.4z M591.1,60.6c0-0.5-0.1-0.8-0.3-1.2c-0.2-0.4-0.6-0.6-1-0.6s-0.8,0.2-1.2,0.6
		c-0.4,0.4-0.6,0.8-0.6,1.2c0,0.3,0.2,0.6,0.7,0.9c0.4,0.2,0.8,0.3,1.2,0.3C590.7,61.7,591.1,61.4,591.1,60.6z"/>
</g>
<g class="st10">
	<rect x="387.5" y="33.4" class="st14" width="296.5" height="42.6"/>
	<path class="st11" d="M402.5,62.4h-1.1c-3,0-4.6-1.4-4.8-4.2c-0.6,0.3-1.3,0.5-2.2,0.5c-1,0-1.9-0.2-2.8-0.6
		c-1-0.5-1.5-1.3-1.5-2.2c0-1.6,0.7-2.9,2.2-3.9c0.6-0.4,1.8-1.2,3.5-2.3c0.4-0.3,0.8-0.9,1.3-1.6c0.3-0.5,0.7-0.7,1.1-0.7
		c0.9,0,1.3,0.6,1.3,1.9c0,0.5-0.1,1.3-0.2,2.3c-0.1,1-0.2,1.8-0.2,2.3c0,1.3,0.1,2.3,0.3,2.9c0.3,1.2,1,1.7,1.9,1.7h1.1V62.4z
		 M396.5,52.6c-0.3,0.2-1,0.7-2.1,1.3c-0.7,0.4-1.1,0.8-1.1,1.2c0,0.4,0.4,0.5,1.3,0.5c0.8,0,1.4-0.1,1.8-0.3c0-0.2,0-0.5,0-0.7
		C396.4,54,396.4,53.4,396.5,52.6z"/>
	<path class="st11" d="M411.7,62.4h-1.1c-2.1,0-3.5-0.7-4-2c-0.8,1.3-2.1,2-4,2h-1.1v-3.8h1.2c1.6,0,2.5-0.7,2.7-2.2
		c0.2-1,0.6-1.5,1.4-1.5c0.8,0,1.2,0.5,1.3,1.5c0.2,1.4,1,2.2,2.5,2.2h1.1V62.4z M406.2,50.5c0,0.5-0.2,1-0.5,1.3
		c-0.4,0.4-0.8,0.5-1.3,0.5c-0.5,0-0.9-0.2-1.3-0.5c-0.4-0.4-0.5-0.8-0.5-1.3c0-0.5,0.2-1,0.5-1.3c0.4-0.4,0.8-0.5,1.3-0.5
		s1,0.2,1.3,0.5C406,49.6,406.2,50,406.2,50.5z M410.7,50.5c0,0.5-0.2,1-0.5,1.3c-0.4,0.4-0.8,0.5-1.3,0.5c-0.5,0-0.9-0.2-1.3-0.5
		c-0.4-0.4-0.5-0.8-0.5-1.3c0-0.5,0.2-1,0.5-1.3c0.4-0.4,0.8-0.5,1.3-0.5s1,0.2,1.3,0.5C410.5,49.6,410.7,50,410.7,50.5z"/>
	<path class="st11" d="M420.7,56c0,4.3-2.7,6.4-8,6.4h-1.9v-3.8h2.4c3.4,0,5.1-0.8,5-2.3c-0.2,0.2-0.6,0.5-1.2,0.7
		c-0.6,0.2-1.1,0.3-1.5,0.3c-1.2,0-2.1-0.4-2.8-1.2c-0.5-0.6-0.7-1.3-0.7-2.1c0-1.3,0.3-2.5,0.9-3.6c0.8-1.4,1.8-2.2,3.2-2.2
		c1.6,0,2.8,0.9,3.6,2.8C420.4,52.5,420.7,54.2,420.7,56z M417.4,44.3c0,0.5-0.2,1-0.5,1.3c-0.4,0.4-0.8,0.5-1.3,0.5s-1-0.2-1.3-0.5
		c-0.4-0.4-0.5-0.8-0.5-1.3s0.2-1,0.5-1.3c0.4-0.4,0.8-0.5,1.3-0.5s1,0.2,1.3,0.5C417.2,43.3,417.4,43.8,417.4,44.3z M417.5,53.3
		c0-0.5-0.2-0.9-0.5-1.2c-0.3-0.3-0.7-0.5-1.1-0.5c-0.3,0-0.6,0.2-0.9,0.5s-0.4,0.7-0.4,1c0,0.8,0.4,1.2,1.2,1.2
		C416.9,54.3,417.5,54,417.5,53.3z"/>
	<path class="st11" d="M438.1,62.4H437c-1.2,0-2.1-0.4-2.7-1.1c-0.8,2-1.9,3.7-3.5,5.1c-1.3,1.2-3.1,2.2-5.4,3.1
		c-0.3,0.1-0.6,0.2-0.9,0.2c-0.4,0-0.8-0.1-1.1-0.4c-0.3-0.3-0.4-0.6-0.4-1c0-0.8,0.5-1.4,1.4-1.8c1.9-0.9,3.4-1.7,4.4-2.5
		c1.5-1.2,2.5-2.5,2.8-4c0-0.2,0.1-0.4,0.1-0.6c0-0.8-0.2-1.8-0.5-2.8c-0.1-0.2-0.1-0.4-0.1-0.6c0-0.5,0.2-0.8,0.5-1.1
		s0.7-0.5,1.1-0.5c0.7-0.1,1.2,0.3,1.6,1.2c0,0.1,0.3,0.7,0.9,2c0.5,0.7,1.4,1.1,2.5,1.1h0.5V62.4z"/>
	<path class="st11" d="M459.2,62.4h-0.9c-1.5,0-2.6-0.6-3.3-1.8c-0.6,1.2-1.7,1.8-3.3,1.8c-1.6,0-2.8-0.6-3.4-1.9
		c-0.6,1.3-1.6,1.9-3.1,1.9c-1.9,0-3.2-0.6-3.8-1.8c-0.7,1.2-1.8,1.8-3.3,1.8h-0.9v-3.8h0.6c1.3,0,2.1-0.7,2.3-2
		c0.2-1,0.6-1.5,1.4-1.5s1.2,0.5,1.3,1.5c0.2,1.3,0.9,2,2.1,2c1.2,0,1.9-0.6,2.1-1.9c0.2-1.1,0.7-1.6,1.5-1.6c0.8,0,1.2,0.5,1.3,1.5
		c0.2,1.3,0.8,2,1.9,2c1.2,0,1.9-0.7,2.1-2c0.1-1,0.6-1.5,1.3-1.5c0.7,0,1.2,0.5,1.4,1.5c0.2,1.3,1,2,2.2,2h0.6V62.4z M443.8,50.3
		c0-0.5,0.2-0.9,0.5-1.3c0.4-0.4,0.8-0.5,1.3-0.5c0.5,0,1,0.2,1.3,0.5c0.4,0.4,0.5,0.8,0.5,1.3s-0.2,1-0.5,1.3
		c-0.4,0.4-0.8,0.5-1.3,0.5s-1-0.2-1.3-0.5C444,51.2,443.8,50.8,443.8,50.3z M446.1,46.3c0-0.5,0.2-1,0.5-1.3
		c0.4-0.4,0.8-0.5,1.3-0.5s1,0.2,1.3,0.5c0.4,0.4,0.5,0.8,0.5,1.3s-0.2,1-0.5,1.3c-0.4,0.4-0.8,0.5-1.3,0.5s-1-0.2-1.3-0.5
		C446.2,47.3,446.1,46.9,446.1,46.3z M448.3,50.3c0-0.5,0.2-0.9,0.5-1.3c0.4-0.4,0.8-0.5,1.3-0.5c0.5,0,1,0.2,1.3,0.5
		c0.4,0.4,0.5,0.8,0.5,1.3s-0.2,1-0.5,1.3s-0.8,0.5-1.3,0.5s-1-0.2-1.3-0.5S448.3,50.8,448.3,50.3z"/>
	<path class="st11" d="M468.5,62.4h-1.1c-2.1,0-3.5-0.7-4-2c-0.8,1.3-2.1,2-4,2h-1.1v-3.8h1.2c1.6,0,2.5-0.7,2.7-2.2
		c0.2-1,0.6-1.5,1.4-1.5c0.8,0,1.2,0.5,1.3,1.5c0.2,1.4,1,2.2,2.5,2.2h1.1V62.4z M463,67.5c0,0.5-0.2,1-0.5,1.3
		c-0.4,0.4-0.8,0.5-1.3,0.5s-1-0.2-1.3-0.5s-0.5-0.8-0.5-1.3c0-0.5,0.2-0.9,0.5-1.3c0.4-0.4,0.8-0.5,1.3-0.5c0.5,0,1,0.2,1.3,0.5
		C462.8,66.5,463,67,463,67.5z M467.4,67.5c0,0.5-0.2,1-0.5,1.3c-0.4,0.4-0.8,0.5-1.3,0.5s-1-0.2-1.3-0.5c-0.4-0.4-0.5-0.8-0.5-1.3
		s0.2-1,0.5-1.3c0.4-0.4,0.8-0.5,1.3-0.5s1,0.2,1.3,0.5C467.3,66.5,467.4,67,467.4,67.5z"/>
	<path class="st11" d="M474.5,56.6c0,1.8-0.5,3.2-1.5,4.3c-1,1-2.4,1.6-4.2,1.6h-1.3v-3.8h1.5c1.6,0,2.4-0.6,2.4-1.7
		c0-0.3-0.1-0.8-0.2-1.4c-0.2-0.6-0.2-1.1-0.2-1.4c0-0.4,0.1-0.8,0.4-1.1c0.3-0.3,0.6-0.5,1.1-0.5C473.9,52.6,474.5,53.9,474.5,56.6
		z M472,66.5c0,0.5-0.2,1-0.5,1.3c-0.4,0.4-0.8,0.5-1.3,0.5s-1-0.2-1.3-0.5c-0.4-0.4-0.5-0.8-0.5-1.3s0.2-1,0.5-1.3
		c0.4-0.4,0.8-0.5,1.3-0.5s1,0.2,1.3,0.5S472,66,472,66.5z M474.2,70.4c0,0.5-0.2,1-0.5,1.3c-0.4,0.4-0.8,0.5-1.3,0.5
		s-1-0.2-1.3-0.5c-0.4-0.4-0.5-0.8-0.5-1.3c0-0.5,0.2-0.9,0.5-1.3c0.4-0.4,0.8-0.5,1.3-0.5c0.5,0,1,0.2,1.3,0.5
		C474.1,69.5,474.2,69.9,474.2,70.4z M476.5,66.5c0,0.5-0.2,1-0.5,1.3c-0.4,0.4-0.8,0.5-1.3,0.5s-1-0.2-1.3-0.5
		c-0.4-0.4-0.5-0.8-0.5-1.3s0.2-1,0.5-1.3c0.4-0.4,0.8-0.5,1.3-0.5s1,0.2,1.3,0.5C476.3,65.5,476.5,66,476.5,66.5z"/>
	<path class="st11" d="M492.7,62.4h-1.1c-2.1,0-3.6-0.8-4.3-2.3c-0.4-0.9-0.7-2.7-0.8-5.2l-0.4-10.2c0-0.6,0.1-1.1,0.4-1.5
		c0.3-0.5,0.7-0.7,1.3-0.7c1.1,0,1.6,0.7,1.6,2.2v10.8c0,2.1,0.8,3.1,2.5,3.1h0.7V62.4z"/>
	<path class="st11" d="M498.8,56.6c0,1.8-0.5,3.2-1.5,4.3c-1,1-2.4,1.6-4.2,1.6h-1.3v-3.8h1.5c1.6,0,2.4-0.6,2.4-1.7
		c0-0.3-0.1-0.8-0.2-1.4c-0.2-0.6-0.2-1.1-0.2-1.4c0-0.4,0.1-0.8,0.4-1.1c0.3-0.3,0.6-0.5,1.1-0.5C498.1,52.6,498.8,53.9,498.8,56.6
		z M496.1,48.7c0,0.5-0.2,1-0.5,1.3s-0.8,0.5-1.3,0.5s-1-0.2-1.3-0.5s-0.5-0.8-0.5-1.3s0.2-1,0.5-1.3s0.8-0.5,1.3-0.5s1,0.2,1.3,0.5
		S496.1,48.2,496.1,48.7z M500.6,48.7c0,0.5-0.2,1-0.5,1.3c-0.4,0.4-0.8,0.5-1.3,0.5s-1-0.2-1.3-0.5c-0.4-0.4-0.5-0.8-0.5-1.3
		s0.2-1,0.5-1.3c0.4-0.4,0.8-0.5,1.3-0.5c0.5,0,0.9,0.2,1.3,0.5C500.4,47.7,500.6,48.2,500.6,48.7z"/>
	<path class="st11" d="M528.7,62.4h-5.1c-1.1,0-1.7,0.1-1.7,0.2c0,0.1,0.4,0.3,1.2,0.5c1.5,0.3,2.2,0.5,2.3,0.5
		c0.9,0.4,1.4,1.1,1.4,2c0,1.4-0.9,2.9-2.6,4.3c-1.9,1.6-4,2.4-6.4,2.4c-5,0-7.5-2.5-7.5-7.4c0-1.2,0.1-2.3,0.4-3.2
		c0.4-1.3,1-1.9,1.9-1.9s1.3,0.5,1.3,1.4c0,0.3-0.1,0.8-0.2,1.5c-0.2,0.6-0.2,1.1-0.2,1.5c0,1.6,0.3,2.8,0.8,3.4
		c0.7,0.8,1.9,1.2,3.8,1.2c1.5,0,2.9-0.3,4-0.9c1-0.5,1.5-1,1.5-1.5c0-0.1-0.4-0.3-1.2-0.4c-1-0.1-1.7-0.3-2.2-0.5
		c-0.8-0.4-1.1-1-1.1-1.8c0-1.7,0.8-3,2.3-3.9c1.3-0.8,2.8-1.2,4.6-1.2h2.8V62.4z"/>
	<path class="st11" d="M534.8,56.6c0,1.8-0.5,3.2-1.5,4.3c-1,1-2.4,1.6-4.2,1.6h-1.3v-3.8h1.5c1.6,0,2.4-0.6,2.4-1.7
		c0-0.3-0.1-0.8-0.2-1.4c-0.2-0.6-0.2-1.1-0.2-1.4c0-0.4,0.1-0.8,0.4-1.1c0.3-0.3,0.6-0.5,1.1-0.5C534.1,52.6,534.8,53.9,534.8,56.6
		z M532.1,48.7c0,0.5-0.2,1-0.5,1.3s-0.8,0.5-1.3,0.5s-1-0.2-1.3-0.5s-0.5-0.8-0.5-1.3s0.2-1,0.5-1.3s0.8-0.5,1.3-0.5s1,0.2,1.3,0.5
		S532.1,48.2,532.1,48.7z M536.6,48.7c0,0.5-0.2,1-0.5,1.3c-0.4,0.4-0.8,0.5-1.3,0.5s-1-0.2-1.3-0.5c-0.4-0.4-0.5-0.8-0.5-1.3
		s0.2-1,0.5-1.3c0.4-0.4,0.8-0.5,1.3-0.5c0.5,0,0.9,0.2,1.3,0.5C536.4,47.7,536.6,48.2,536.6,48.7z"/>
	<path class="st11" d="M545.9,62.4h-1.1c-2.1,0-3.6-0.8-4.3-2.3c-0.4-0.9-0.7-2.7-0.8-5.2l-0.4-10.2c0-0.6,0.1-1.1,0.4-1.5
		c0.3-0.5,0.7-0.7,1.3-0.7c1.1,0,1.6,0.7,1.6,2.2v10.8c0,2.1,0.8,3.1,2.5,3.1h0.7V62.4z"/>
	<path class="st11" d="M556.3,58.4c0,1.2-0.3,2.2-1,3c-0.7,0.9-1.6,1.4-2.8,1.4c-1.5,0-2.7-0.6-3.6-1.7c-0.8,0.8-1.8,1.2-3,1.2h-1
		v-3.8h0.6c0.6,0,1.1-0.1,1.4-0.3c0.3-0.2,0.7-0.5,1-1.1c0.8-1.2,1.3-1.8,1.5-2.1c1-1.1,2-1.6,3-1.6c1.2,0,2.2,0.5,2.8,1.6
		C556,56.1,556.3,57.1,556.3,58.4z M553.8,58.6c0-0.5-0.1-0.8-0.3-1.2c-0.2-0.4-0.6-0.6-1-0.6s-0.8,0.2-1.2,0.6
		c-0.4,0.4-0.6,0.8-0.6,1.2c0,0.3,0.2,0.6,0.7,0.9c0.4,0.2,0.8,0.3,1.2,0.3C553.3,59.7,553.8,59.4,553.8,58.6z"/>
	<path class="st11" d="M574.1,62.4H573c-1.8,0-3-0.5-3.6-1.4c-0.6,1.1-2.1,1.8-4.4,2.3c-1.2,0.2-2.2,0.4-3,0.4c-1.9,0-2.9-0.6-3-1.9
		c-0.1-1,0.6-1.6,2.2-1.7c4.2-0.3,6.1-1,5.9-2.1c-0.1-0.6-0.4-1.3-1-2.2c-0.3-0.4-0.8-1.2-1.5-2.4c-0.5-0.9-0.8-1.6-0.8-2.2
		c0-1,0.5-1.6,1.6-1.6c0.2,0,0.3,0,0.5,0.1c0.7,0.2,2.1,2.2,4,6.1c0.5,1,0.9,1.7,1.3,2c0.5,0.5,1.3,0.8,2.2,0.8h0.7V62.4z"/>
	<path class="st11" d="M585.2,62.4h-1.9c-0.6,0-1.3-0.1-2.2-0.3c-1-0.2-1.6-0.5-2-0.8c-1,0.8-2.5,1.1-4.2,1.1h-1.8v-3.8h2.9
		c-0.6-0.8-1-1.7-1-2.6c0-1.2,0.5-2.3,1.4-3.4c1-1.2,2-1.7,3.2-1.7c1.2,0,2.2,0.5,2.9,1.4c0.6,0.9,0.9,1.9,0.9,3.2
		c0,1.4-0.4,2.4-1.3,3.1h3.1V62.4z M579,46.9c0,0.5-0.2,1-0.5,1.3c-0.4,0.4-0.8,0.5-1.3,0.5c-0.5,0-0.9-0.2-1.3-0.5
		c-0.4-0.4-0.5-0.8-0.5-1.3c0-0.5,0.2-1,0.5-1.3s0.8-0.5,1.3-0.5s1,0.2,1.3,0.5C578.8,46,579,46.4,579,46.9z M580.9,56
		c0-0.4-0.1-0.8-0.4-1.1s-0.6-0.5-1-0.5c-0.4,0-0.8,0.2-1.2,0.6c-0.4,0.4-0.6,0.8-0.6,1.2c0,0.4,0.2,0.7,0.5,1
		c0.3,0.3,0.7,0.4,1.1,0.4c0.4,0,0.7-0.2,1-0.5C580.7,56.7,580.9,56.3,580.9,56z M583.5,46.9c0,0.5-0.2,1-0.5,1.3
		c-0.4,0.4-0.8,0.5-1.3,0.5c-0.5,0-0.9-0.2-1.3-0.5c-0.4-0.4-0.5-0.8-0.5-1.3c0-0.5,0.2-1,0.5-1.3c0.4-0.4,0.8-0.5,1.3-0.5
		s1,0.2,1.3,0.5C583.3,46,583.5,46.4,583.5,46.9z"/>
	<path class="st11" d="M595.7,58.4c0,1.2-0.3,2.2-1,3c-0.7,0.9-1.6,1.4-2.8,1.4c-1.5,0-2.7-0.6-3.6-1.7c-0.8,0.8-1.8,1.2-3,1.2h-1
		v-3.8h0.6c0.6,0,1.1-0.1,1.4-0.3c0.3-0.2,0.7-0.5,1-1.1c0.8-1.2,1.3-1.8,1.5-2.1c1-1.1,2-1.6,3-1.6c1.2,0,2.2,0.5,2.8,1.6
		C595.4,56.1,595.7,57.1,595.7,58.4z M593.1,58.6c0-0.5-0.1-0.8-0.3-1.2c-0.2-0.4-0.6-0.6-1-0.6s-0.8,0.2-1.2,0.6
		c-0.4,0.4-0.6,0.8-0.6,1.2c0,0.3,0.2,0.6,0.7,0.9c0.4,0.2,0.8,0.3,1.2,0.3C592.7,59.7,593.1,59.4,593.1,58.6z"/>
</g>
<path class="st15" d="M384.3,144.9c-6.2,0-11.6,1.5-16.1,3.7c-1.7-3.3-3.3-6.2-3.6-8.3c-0.3-2.5-0.7-4-0.3-7c0.4-3,2.1-7.2,2.1-7.6
	c0-0.3-0.4-1.8-3.9-1.9c-3.6,0-6.7,0.7-7,1.6c-0.3,0.9-1,3.1-1.5,5.3c-0.6,3.3-7.1,14.8-10.8,20.9c-1.2-2.4-2.3-4.4-2.5-6.1
	c-0.3-2.5-0.7-4-0.3-7c0.4-3,2.1-7.2,2.1-7.6c0-0.3-0.4-1.8-3.9-1.9c-3.6,0-6.7,0.7-7,1.6c-0.3,0.9-0.7,3.2-1.5,5.3
	c-0.7,2.1-9.4,21.4-11.6,26.4c-1.1,2.6-2.1,4.6-2.9,6c-0.7,1.4,0,0.1-0.1,0.2c-0.6,1.2-1,1.8-1,1.8v0c-0.5,0.9-1,1.7-1.2,1.7
	c-0.2,0-0.5-2.3,0.1-5.5c1.3-6.7,4.4-17.1,4.4-17.5c0-0.2,0.6-2-2-2.9c-2.5-0.9-3.4,0.6-3.6,0.6c-0.2,0-0.4,0.6-0.4,0.6
	s2.8-11.7-5.4-11.7c-5.1,0-12.2,5.6-15.7,10.7c-2.2,1.2-6.9,3.8-11.9,6.5c-1.9,1-3.9,2.1-5.8,3.2l-0.4-0.4
	c-9.9-10.6-28.2-18-27.5-32.3c0.3-5.2,2.1-18.8,35.2-35.3c27.1-13.5,48.8-9.8,52.6-1.6c5.4,11.8-11.6,33.7-39.8,36.8
	c-10.7,1.2-16.4-2.9-17.8-4.5c-1.5-1.6-1.7-1.7-2.3-1.4c-0.9,0.5-0.3,1.9,0,2.8c0.8,2.2,4.3,6.1,10.2,8c5.2,1.7,17.8,2.6,33-3.3
	c17.1-6.6,30.4-25,26.5-40.3c-4-15.6-29.9-20.8-54.4-12.1C273.7,78,258,86.1,246.6,96.7c-13.5,12.6-15.7,23.6-14.8,28.2
	c3.2,16.3,25.6,27,34.6,34.8c-0.5,0.2-0.9,0.5-1.2,0.7c-4.5,2.2-21.7,11.2-25.9,20.7c-4.8,10.7,0.8,18.5,4.5,19.5
	c11.6,3.2,23.4-2.6,29.8-12.1c6.4-9.5,5.6-21.9,2.7-27.5l-0.1-0.2l3.5-2.1c2.3-1.4,4.5-2.6,6.5-3.7c-1.1,3-1.9,6.6-2.3,11.8
	c-0.5,6.1,2,14,5.3,17.1c1.5,1.4,3.2,1.4,4.3,1.4c3.8,0,5.5-3.2,7.4-6.9c2.4-4.6,4.4-9.9,4.4-9.9s-2.6,14.4,4.5,14.4
	c2.6,0,5.2-3.4,6.4-5.1v0c0,0,0.1-0.1,0.2-0.3c0.1-0.2,0.3-0.4,0.4-0.7v-0.1c1-1.8,3.4-5.9,6.8-12.7c4.5-8.8,8.8-19.8,8.8-19.8
	s0.4,2.7,1.7,7.1c0.8,2.6,2.4,5.5,3.7,8.3c-1,1.5-1.7,2.3-1.7,2.3l0,0c-0.8,1.1-1.8,2.3-2.7,3.5c-3.5,4.2-7.8,9-8.3,10.4
	c-0.7,1.6-0.5,2.8,0.8,3.8c0.9,0.7,2.6,0.8,4.4,0.7c3.2-0.2,5.4-1,6.5-1.5c1.7-0.6,3.7-1.6,5.6-2.9c3.5-2.6,5.6-6.2,5.4-11.1
	c-0.1-2.7-1-5.3-2-7.8c0.3-0.5,0.6-0.9,0.9-1.4c5.5-8,9.7-16.8,9.7-16.8s0.4,2.7,1.7,7.1c0.7,2.3,2,4.7,3.2,7.1
	c-5.1,4.2-8.3,9-9.5,12.2c-2,5.9-0.5,8.6,2.6,9.2c1.4,0.3,3.3-0.3,4.7-1c1.8-0.6,4-1.6,6-3.1c3.5-2.6,6.8-6.1,6.6-10.9
	c-0.1-2.2-0.7-4.4-1.5-6.5c4.4-1.8,10-2.8,17.2-2c15.4,1.8,18.5,11.4,17.9,15.4c-0.6,4-3.8,6.2-4.9,6.9c-1.1,0.7-1.4,0.9-1.3,1.4
	c0.1,0.7,0.6,0.7,1.6,0.6c1.3-0.2,8.1-3.3,8.4-10.7C409.4,155.2,400.4,144.8,384.3,144.9L384.3,144.9z M265.4,185
	c-5.1,5.6-12.3,7.7-15.3,5.9c-3.3-1.9-2-10.1,4.3-16c3.8-3.6,8.8-6.9,12-9c0.7-0.5,1.8-1.1,3.2-1.9c0.2-0.1,0.3-0.2,0.3-0.2
	c0.2-0.1,0.5-0.3,0.8-0.5C273,171.7,270.8,179.2,265.4,185L265.4,185z M302.7,159.7c-1.8,4.3-5.5,15.4-7.8,14.8
	c-1.9-0.5-3.1-8.9-0.4-17.3c1.4-4.2,4.3-9.2,6.1-11.1c2.8-3.1,5.9-4.2,6.6-2.9C308.1,144.9,303.8,157,302.7,159.7z M333.4,174.4
	c-0.8,0.4-1.5,0.7-1.8,0.5c-0.2-0.1,0.3-0.7,0.3-0.7s3.8-4.1,5.4-6c0.9-1.1,1.9-2.4,3-3.8v0.4C340.3,169.7,335.5,173,333.4,174.4
	L333.4,174.4z M357.1,169c-0.6-0.4-0.5-1.7,1.4-5.7c0.7-1.6,2.4-4.3,5.3-6.8c0.3,1,0.6,2,0.5,3C364.2,165.7,359.8,168,357.1,169z"/>
<g>
	<g class="st16">
		<path class="st5" d="M206.6,234.4v6.6h10.1v-6.6c0-0.9,0.2-1.7,0.6-2.1c0.4-0.5,1-0.7,1.7-0.7c0.7,0,1.3,0.2,1.7,0.7
			c0.4,0.5,0.7,1.2,0.7,2.1v18.3c0,1-0.2,1.7-0.7,2.2s-1,0.7-1.7,0.7c-0.7,0-1.3-0.2-1.7-0.7s-0.6-1.2-0.6-2.1v-7.8h-10.1v7.8
			c0,1-0.2,1.7-0.7,2.2c-0.4,0.5-1,0.7-1.7,0.7c-0.7,0-1.3-0.2-1.7-0.7c-0.4-0.5-0.6-1.2-0.6-2.1v-18.3c0-0.9,0.2-1.7,0.6-2.1
			c0.4-0.5,1-0.7,1.7-0.7c0.7,0,1.3,0.2,1.7,0.7C206.4,232.8,206.6,233.5,206.6,234.4z"/>
		<path class="st5" d="M241.5,235.9h-5.1v16.8c0,1-0.2,1.7-0.6,2.2s-1,0.7-1.7,0.7c-0.7,0-1.3-0.2-1.7-0.7c-0.4-0.5-0.7-1.2-0.7-2.2
			v-16.8h-5.1c-0.8,0-1.4-0.2-1.8-0.5c-0.4-0.4-0.6-0.8-0.6-1.4c0-0.6,0.2-1.1,0.6-1.4s1-0.5,1.8-0.5h14.9c0.8,0,1.4,0.2,1.8,0.5
			c0.4,0.4,0.6,0.8,0.6,1.4s-0.2,1-0.6,1.4C242.9,235.7,242.3,235.9,241.5,235.9z"/>
		<path class="st5" d="M254.6,251.7l-3.7-14.8v16c0,0.9-0.2,1.5-0.6,2c-0.4,0.4-0.9,0.7-1.6,0.7c-0.6,0-1.1-0.2-1.5-0.7
			s-0.6-1.1-0.6-2v-18.3c0-1,0.3-1.7,0.8-2c0.5-0.4,1.2-0.5,2.1-0.5h1.5c0.9,0,1.5,0.1,1.9,0.2c0.4,0.2,0.7,0.4,0.9,0.9
			c0.2,0.4,0.4,1.1,0.6,2l3.4,12.7l3.4-12.7c0.2-0.9,0.5-1.6,0.6-2c0.2-0.4,0.5-0.7,0.9-0.9c0.4-0.2,1-0.2,1.9-0.2h1.5
			c0.9,0,1.6,0.2,2.1,0.5s0.8,1,0.8,2v18.3c0,0.9-0.2,1.5-0.6,2c-0.4,0.4-0.9,0.7-1.6,0.7c-0.6,0-1.1-0.2-1.5-0.7
			c-0.4-0.4-0.6-1.1-0.6-2v-16l-3.7,14.8c-0.2,1-0.4,1.7-0.6,2.1c-0.2,0.4-0.4,0.9-0.8,1.2c-0.4,0.4-1,0.6-1.7,0.6
			c-0.5,0-1-0.1-1.4-0.4c-0.4-0.2-0.7-0.5-0.9-0.9c-0.2-0.4-0.4-0.8-0.5-1.2C254.8,252.6,254.7,252.1,254.6,251.7z"/>
		<path class="st5" d="M278.3,234.4v16.9h9.5c0.8,0,1.3,0.2,1.7,0.6c0.4,0.4,0.6,0.8,0.6,1.4c0,0.6-0.2,1-0.6,1.4
			c-0.4,0.4-1,0.5-1.8,0.5h-11.3c-1,0-1.8-0.2-2.2-0.7c-0.4-0.5-0.7-1.2-0.7-2.2v-17.8c0-0.9,0.2-1.7,0.6-2.1c0.4-0.5,1-0.7,1.7-0.7
			c0.7,0,1.3,0.2,1.7,0.7C278.1,232.8,278.3,233.5,278.3,234.4z"/>
	</g>
	<g>
		<path class="st5" d="M208.6,232.4v6.6h10.1v-6.6c0-0.9,0.2-1.7,0.6-2.1c0.4-0.5,1-0.7,1.7-0.7c0.7,0,1.3,0.2,1.7,0.7
			c0.4,0.5,0.7,1.2,0.7,2.1v18.3c0,1-0.2,1.7-0.7,2.2s-1,0.7-1.7,0.7c-0.7,0-1.3-0.2-1.7-0.7s-0.6-1.2-0.6-2.1v-7.8h-10.1v7.8
			c0,1-0.2,1.7-0.7,2.2c-0.4,0.5-1,0.7-1.7,0.7c-0.7,0-1.3-0.2-1.7-0.7c-0.4-0.5-0.6-1.2-0.6-2.1v-18.3c0-0.9,0.2-1.7,0.6-2.1
			c0.4-0.5,1-0.7,1.7-0.7c0.7,0,1.3,0.2,1.7,0.7C208.4,230.8,208.6,231.5,208.6,232.4z"/>
		<path class="st5" d="M243.5,233.9h-5.1v16.8c0,1-0.2,1.7-0.6,2.2s-1,0.7-1.7,0.7c-0.7,0-1.3-0.2-1.7-0.7c-0.4-0.5-0.7-1.2-0.7-2.2
			v-16.8h-5.1c-0.8,0-1.4-0.2-1.8-0.5c-0.4-0.4-0.6-0.8-0.6-1.4c0-0.6,0.2-1.1,0.6-1.4s1-0.5,1.8-0.5h14.9c0.8,0,1.4,0.2,1.8,0.5
			c0.4,0.4,0.6,0.8,0.6,1.4s-0.2,1-0.6,1.4C244.9,233.7,244.3,233.9,243.5,233.9z"/>
		<path class="st5" d="M256.6,249.7l-3.7-14.8v16c0,0.9-0.2,1.5-0.6,2c-0.4,0.4-0.9,0.7-1.6,0.7c-0.6,0-1.1-0.2-1.5-0.7
			s-0.6-1.1-0.6-2v-18.3c0-1,0.3-1.7,0.8-2c0.5-0.4,1.2-0.5,2.1-0.5h1.5c0.9,0,1.5,0.1,1.9,0.2c0.4,0.2,0.7,0.4,0.9,0.9
			c0.2,0.4,0.4,1.1,0.6,2l3.4,12.7l3.4-12.7c0.2-0.9,0.5-1.6,0.6-2c0.2-0.4,0.5-0.7,0.9-0.9c0.4-0.2,1-0.2,1.9-0.2h1.5
			c0.9,0,1.6,0.2,2.1,0.5s0.8,1,0.8,2v18.3c0,0.9-0.2,1.5-0.6,2c-0.4,0.4-0.9,0.7-1.6,0.7c-0.6,0-1.1-0.2-1.5-0.7
			c-0.4-0.4-0.6-1.1-0.6-2v-16l-3.7,14.8c-0.2,1-0.4,1.7-0.6,2.1c-0.2,0.4-0.4,0.9-0.8,1.2c-0.4,0.4-1,0.6-1.7,0.6
			c-0.5,0-1-0.1-1.4-0.4c-0.4-0.2-0.7-0.5-0.9-0.9c-0.2-0.4-0.4-0.8-0.5-1.2C256.8,250.6,256.7,250.1,256.6,249.7z"/>
		<path class="st5" d="M280.3,232.4v16.9h9.5c0.8,0,1.3,0.2,1.7,0.6c0.4,0.4,0.6,0.8,0.6,1.4c0,0.6-0.2,1-0.6,1.4
			c-0.4,0.4-1,0.5-1.8,0.5h-11.3c-1,0-1.8-0.2-2.2-0.7c-0.4-0.5-0.7-1.2-0.7-2.2v-17.8c0-0.9,0.2-1.7,0.6-2.1c0.4-0.5,1-0.7,1.7-0.7
			c0.7,0,1.3,0.2,1.7,0.7C280.1,230.8,280.3,231.5,280.3,232.4z"/>
	</g>
	<g>
		<path class="st17" d="M293.2,96.3l-8,89.4l-35.9,9.9l-35.8-9.9l-8-89.4H293.2L293.2,96.3z"/>
		<path class="st5" d="M249.4,188.1l29-8l6.8-76.4h-35.8V188.1z"/>
		<path class="st18" d="M233.9,125.6h15.5v-11h-27.5l0.3,2.9l2.7,30.2h24.5v-11h-14.5L233.9,125.6z M236.4,153.2h-11l1.5,17.2
			l22.5,6.2l0.1,0v-11.4l0,0l-12.2-3.3L236.4,153.2L236.4,153.2z"/>
		<path class="st3" d="M249.4,147.8h13.5l-1.3,14.2l-12.2,3.3v11.4l22.5-6.2l0.2-1.9l2.6-28.9l0.3-2.9h-25.5V147.8L249.4,147.8z
			 M249.4,125.5L249.4,125.5l26.5,0l0.2-2.5l0.5-5.6l0.3-2.9h-27.5V125.5L249.4,125.5z"/>
	</g>
</g>
<g>
	<g>
		<path class="st6" d="M368.6,246.8c0,0.7-0.2,1.5-0.5,2.4c-0.4,0.9-0.9,1.7-1.7,2.5c-0.8,0.8-1.8,1.5-3,2c-1.2,0.5-2.6,0.8-4.2,0.8
			c-1.2,0-2.3-0.1-3.3-0.3c-1-0.2-1.9-0.6-2.7-1.1c-0.8-0.5-1.6-1.1-2.3-1.9c-0.6-0.7-1.1-1.5-1.6-2.4s-0.8-1.9-1-2.9
			c-0.2-1-0.3-2.1-0.3-3.3c0-1.9,0.3-3.5,0.8-5s1.3-2.7,2.3-3.8c1-1,2.2-1.8,3.6-2.4c1.4-0.5,2.8-0.8,4.3-0.8c1.9,0,3.5,0.4,5,1.1
			c1.5,0.7,2.6,1.7,3.4,2.8s1.2,2.1,1.2,3.1c0,0.5-0.2,1-0.6,1.4s-0.8,0.6-1.4,0.6c-0.6,0-1.1-0.1-1.4-0.4c-0.3-0.3-0.6-0.8-1-1.5
			c-0.6-1.1-1.3-2-2.2-2.6c-0.8-0.6-1.8-0.9-3.1-0.9c-1.9,0-3.5,0.7-4.6,2.2s-1.7,3.5-1.7,6.2c0,1.8,0.3,3.3,0.8,4.5
			s1.2,2.1,2.2,2.7c0.9,0.6,2,0.9,3.3,0.9c1.3,0,2.5-0.3,3.4-1c0.9-0.7,1.6-1.7,2.1-2.9c0.2-0.6,0.4-1.1,0.7-1.5
			c0.3-0.4,0.8-0.6,1.4-0.6c0.6,0,1,0.2,1.4,0.6C368.4,245.8,368.6,246.3,368.6,246.8z"/>
		<path class="st6" d="M390.5,247.2c0,1.4-0.4,2.7-1.1,3.8s-1.8,2-3.2,2.6c-1.4,0.6-3,0.9-4.9,0.9c-2.3,0-4.2-0.4-5.7-1.3
			c-1.1-0.6-1.9-1.5-2.6-2.5c-0.7-1-1-2-1-3c0-0.6,0.2-1.1,0.6-1.5c0.4-0.4,0.9-0.6,1.5-0.6c0.5,0,0.9,0.2,1.3,0.5
			c0.3,0.3,0.6,0.8,0.9,1.4c0.3,0.7,0.6,1.4,1,1.8s0.8,0.9,1.4,1.2c0.6,0.3,1.4,0.5,2.5,0.5c1.4,0,2.5-0.3,3.4-1
			c0.9-0.6,1.3-1.5,1.3-2.4c0-0.8-0.2-1.4-0.7-1.9s-1.1-0.8-1.8-1.1s-1.7-0.5-3-0.8c-1.7-0.4-3.1-0.8-4.2-1.4
			c-1.1-0.5-2-1.2-2.7-2.1c-0.7-0.9-1-2-1-3.4c0-1.3,0.3-2.4,1-3.4c0.7-1,1.7-1.8,3-2.3s2.9-0.8,4.6-0.8c1.4,0,2.7,0.2,3.7,0.5
			c1,0.4,1.9,0.8,2.6,1.4s1.2,1.2,1.5,1.8c0.3,0.6,0.5,1.3,0.5,1.9c0,0.6-0.2,1.1-0.6,1.5s-0.9,0.7-1.5,0.7c-0.5,0-0.9-0.1-1.2-0.4
			s-0.6-0.7-0.9-1.3c-0.4-0.9-0.9-1.6-1.5-2c-0.6-0.5-1.5-0.7-2.8-0.7c-1.2,0-2.2,0.3-2.9,0.8c-0.7,0.5-1.1,1.2-1.1,1.9
			c0,0.5,0.1,0.9,0.4,1.2s0.6,0.6,1,0.9c0.4,0.2,0.9,0.4,1.3,0.6c0.5,0.1,1.2,0.3,2.2,0.6c1.3,0.3,2.5,0.6,3.5,1s2,0.8,2.7,1.3
			c0.7,0.5,1.3,1.2,1.7,2C390.3,245,390.5,246,390.5,247.2z"/>
		<path class="st6" d="M412.1,247.2c0,1.4-0.4,2.7-1.1,3.8c-0.7,1.1-1.8,2-3.2,2.6c-1.4,0.6-3,0.9-4.9,0.9c-2.3,0-4.2-0.4-5.7-1.3
			c-1.1-0.6-1.9-1.5-2.6-2.5s-1-2-1-3c0-0.6,0.2-1.1,0.6-1.5c0.4-0.4,0.9-0.6,1.5-0.6c0.5,0,0.9,0.2,1.3,0.5
			c0.3,0.3,0.6,0.8,0.9,1.4c0.3,0.7,0.6,1.4,1,1.8c0.3,0.5,0.8,0.9,1.4,1.2c0.6,0.3,1.4,0.5,2.5,0.5c1.4,0,2.5-0.3,3.4-1
			c0.9-0.6,1.3-1.5,1.3-2.4c0-0.8-0.2-1.4-0.7-1.9c-0.5-0.5-1.1-0.8-1.8-1.1c-0.7-0.3-1.7-0.5-3-0.8c-1.7-0.4-3.1-0.8-4.2-1.4
			c-1.1-0.5-2-1.2-2.7-2.1c-0.7-0.9-1-2-1-3.4c0-1.3,0.3-2.4,1-3.4c0.7-1,1.7-1.8,3-2.3c1.3-0.5,2.9-0.8,4.6-0.8
			c1.4,0,2.7,0.2,3.7,0.5c1,0.4,1.9,0.8,2.6,1.4c0.7,0.6,1.2,1.2,1.5,1.8c0.3,0.6,0.5,1.3,0.5,1.9c0,0.6-0.2,1.1-0.6,1.5
			c-0.4,0.4-0.9,0.7-1.5,0.7c-0.5,0-0.9-0.1-1.2-0.4s-0.6-0.7-0.9-1.3c-0.4-0.9-0.9-1.6-1.5-2c-0.6-0.5-1.5-0.7-2.8-0.7
			c-1.2,0-2.2,0.3-2.9,0.8c-0.7,0.5-1.1,1.2-1.1,1.9c0,0.5,0.1,0.9,0.4,1.2c0.3,0.3,0.6,0.6,1,0.9c0.4,0.2,0.9,0.4,1.3,0.6
			c0.5,0.1,1.2,0.3,2.2,0.6c1.3,0.3,2.5,0.6,3.5,1c1.1,0.4,2,0.8,2.7,1.3s1.3,1.2,1.7,2C411.9,245,412.1,246,412.1,247.2z"/>
	</g>
	<g class="st19">
		<path class="st6" d="M366.6,247.8c0,0.7-0.2,1.5-0.5,2.4c-0.4,0.9-0.9,1.7-1.7,2.5c-0.8,0.8-1.8,1.5-3,2c-1.2,0.5-2.6,0.8-4.2,0.8
			c-1.2,0-2.3-0.1-3.3-0.3c-1-0.2-1.9-0.6-2.7-1.1c-0.8-0.5-1.6-1.1-2.3-1.9c-0.6-0.7-1.1-1.5-1.6-2.4s-0.8-1.9-1-2.9
			c-0.2-1-0.3-2.1-0.3-3.3c0-1.9,0.3-3.5,0.8-5s1.3-2.7,2.3-3.8c1-1,2.2-1.8,3.6-2.4c1.4-0.5,2.8-0.8,4.3-0.8c1.9,0,3.5,0.4,5,1.1
			c1.5,0.7,2.6,1.7,3.4,2.8s1.2,2.1,1.2,3.1c0,0.5-0.2,1-0.6,1.4s-0.8,0.6-1.4,0.6c-0.6,0-1.1-0.1-1.4-0.4c-0.3-0.3-0.6-0.8-1-1.5
			c-0.6-1.1-1.3-2-2.2-2.6c-0.8-0.6-1.8-0.9-3.1-0.9c-1.9,0-3.5,0.7-4.6,2.2s-1.7,3.5-1.7,6.2c0,1.8,0.3,3.3,0.8,4.5
			s1.2,2.1,2.2,2.7c0.9,0.6,2,0.9,3.3,0.9c1.3,0,2.5-0.3,3.4-1c0.9-0.7,1.6-1.7,2.1-2.9c0.2-0.6,0.4-1.1,0.7-1.5
			c0.3-0.4,0.8-0.6,1.4-0.6c0.6,0,1,0.2,1.4,0.6C366.4,246.8,366.6,247.3,366.6,247.8z"/>
		<path class="st6" d="M388.5,248.2c0,1.4-0.4,2.7-1.1,3.8s-1.8,2-3.2,2.6c-1.4,0.6-3,0.9-4.9,0.9c-2.3,0-4.2-0.4-5.7-1.3
			c-1.1-0.6-1.9-1.5-2.6-2.5c-0.7-1-1-2-1-3c0-0.6,0.2-1.1,0.6-1.5c0.4-0.4,0.9-0.6,1.5-0.6c0.5,0,0.9,0.2,1.3,0.5
			c0.3,0.3,0.6,0.8,0.9,1.4c0.3,0.7,0.6,1.4,1,1.8s0.8,0.9,1.4,1.2c0.6,0.3,1.4,0.5,2.5,0.5c1.4,0,2.5-0.3,3.4-1
			c0.9-0.6,1.3-1.5,1.3-2.4c0-0.8-0.2-1.4-0.7-1.9s-1.1-0.8-1.8-1.1s-1.7-0.5-3-0.8c-1.7-0.4-3.1-0.8-4.2-1.4
			c-1.1-0.5-2-1.2-2.7-2.1c-0.7-0.9-1-2-1-3.4c0-1.3,0.3-2.4,1-3.4c0.7-1,1.7-1.8,3-2.3s2.9-0.8,4.6-0.8c1.4,0,2.7,0.2,3.7,0.5
			c1,0.4,1.9,0.8,2.6,1.4s1.2,1.2,1.5,1.8c0.3,0.6,0.5,1.3,0.5,1.9c0,0.6-0.2,1.1-0.6,1.5s-0.9,0.7-1.5,0.7c-0.5,0-0.9-0.1-1.2-0.4
			s-0.6-0.7-0.9-1.3c-0.4-0.9-0.9-1.6-1.5-2c-0.6-0.5-1.5-0.7-2.8-0.7c-1.2,0-2.2,0.3-2.9,0.8c-0.7,0.5-1.1,1.2-1.1,1.9
			c0,0.5,0.1,0.9,0.4,1.2s0.6,0.6,1,0.9c0.4,0.2,0.9,0.4,1.3,0.6c0.5,0.1,1.2,0.3,2.2,0.6c1.3,0.3,2.5,0.6,3.5,1s2,0.8,2.7,1.3
			c0.7,0.5,1.3,1.2,1.7,2C388.3,246,388.5,247,388.5,248.2z"/>
		<path class="st6" d="M410.1,248.2c0,1.4-0.4,2.7-1.1,3.8c-0.7,1.1-1.8,2-3.2,2.6c-1.4,0.6-3,0.9-4.9,0.9c-2.3,0-4.2-0.4-5.7-1.3
			c-1.1-0.6-1.9-1.5-2.6-2.5s-1-2-1-3c0-0.6,0.2-1.1,0.6-1.5c0.4-0.4,0.9-0.6,1.5-0.6c0.5,0,0.9,0.2,1.3,0.5
			c0.3,0.3,0.6,0.8,0.9,1.4c0.3,0.7,0.6,1.4,1,1.8c0.3,0.5,0.8,0.9,1.4,1.2c0.6,0.3,1.4,0.5,2.5,0.5c1.4,0,2.5-0.3,3.4-1
			c0.9-0.6,1.3-1.5,1.3-2.4c0-0.8-0.2-1.4-0.7-1.9c-0.5-0.5-1.1-0.8-1.8-1.1c-0.7-0.3-1.7-0.5-3-0.8c-1.7-0.4-3.1-0.8-4.2-1.4
			c-1.1-0.5-2-1.2-2.7-2.1c-0.7-0.9-1-2-1-3.4c0-1.3,0.3-2.4,1-3.4c0.7-1,1.7-1.8,3-2.3c1.3-0.5,2.9-0.8,4.6-0.8
			c1.4,0,2.7,0.2,3.7,0.5c1,0.4,1.9,0.8,2.6,1.4c0.7,0.6,1.2,1.2,1.5,1.8c0.3,0.6,0.5,1.3,0.5,1.9c0,0.6-0.2,1.1-0.6,1.5
			c-0.4,0.4-0.9,0.7-1.5,0.7c-0.5,0-0.9-0.1-1.2-0.4s-0.6-0.7-0.9-1.3c-0.4-0.9-0.9-1.6-1.5-2c-0.6-0.5-1.5-0.7-2.8-0.7
			c-1.2,0-2.2,0.3-2.9,0.8c-0.7,0.5-1.1,1.2-1.1,1.9c0,0.5,0.1,0.9,0.4,1.2c0.3,0.3,0.6,0.6,1,0.9c0.4,0.2,0.9,0.4,1.3,0.6
			c0.5,0.1,1.2,0.3,2.2,0.6c1.3,0.3,2.5,0.6,3.5,1c1.1,0.4,2,0.8,2.7,1.3s1.3,1.2,1.7,2C409.9,246,410.1,247,410.1,248.2z"/>
	</g>
	<path class="st2" d="M334,57h138v138H334V57z"/>
	<path class="st6" d="M412.9,185.8l-34.9,9.4l-34.9-9.4L335,98.5H421L412.9,185.8z"/>
	<path class="st20" d="M384,105.6v82.1l0.1,0l28.2-7.6l6.5-74.5L384,105.6L384,105.6z"/>
	<path class="st3" d="M384,127.4l-25,10.4l0.8,10.3l24.2-10.3l25.7-11l1.1-10.5L384,127.4L384,127.4z"/>
	
		<linearGradient id="SVGID_1_" gradientUnits="userSpaceOnUse" x1="-742.2997" y1="-1484.4432" x2="-742.2997" y2="-1488.9034" gradientTransform="matrix(4.6418 0 0 4.6418 3817.0864 7038.6011)">
		<stop  offset="0.387" style="stop-color:#D1D3D4;stop-opacity:0"/>
		<stop  offset="1" style="stop-color:#D1D3D4"/>
	</linearGradient>
	<path class="st21" d="M359,137.8l0.8,10.3l24.2-10.3v-10.4L359,137.8z"/>
	
		<linearGradient id="SVGID_2_" gradientUnits="userSpaceOnUse" x1="-736.7269" y1="-1486.6678" x2="-736.7269" y2="-1491.3041" gradientTransform="matrix(4.6418 0 0 4.6418 3817.0864 7038.6011)">
		<stop  offset="0.387" style="stop-color:#D1D3D4;stop-opacity:0"/>
		<stop  offset="1" style="stop-color:#D1D3D4"/>
	</linearGradient>
	<path class="st22" d="M410.7,116.3L384,127.4v10.4l25.7-11L410.7,116.3z"/>
	
		<linearGradient id="SVGID_3_" gradientUnits="userSpaceOnUse" x1="-744.9822" y1="-1482.4539" x2="-734.2698" y2="-1482.4539" gradientTransform="matrix(4.6418 0 0 4.6418 3817.0864 7038.6011)">
		<stop  offset="0" style="stop-color:#E8E7E5"/>
		<stop  offset="1" style="stop-color:#FFFFFF"/>
	</linearGradient>
	<path class="st23" d="M359,137.8l0.8,10.3l37.1,0.1l-0.8,13.7l-12.2,3.4l-11.7-3l-0.7-8.5h-10.9l1.4,16.5l22,6.5l21.9-6.4l2.8-32.7
		H359z"/>
	<path class="st24" d="M384,137.8h-25l0.8,10.3l24.2,0.1V137.8L384,137.8z M384,165.4l-0.1,0l-11.7-3l-0.7-8.5h-10.9l1.4,16.5
		l22,6.5V165.4z"/>
	
		<linearGradient id="SVGID_4_" gradientUnits="userSpaceOnUse" x1="-745.4751" y1="-1490.1691" x2="-733.8448" y2="-1490.1691" gradientTransform="matrix(4.6418 0 0 4.6418 3817.0864 7038.6011)">
		<stop  offset="0" style="stop-color:#E8E7E5"/>
		<stop  offset="1" style="stop-color:#FFFFFF"/>
	</linearGradient>
	<path class="st25" d="M356.7,116.3h54l-1.1,10.5H358L356.7,116.3L356.7,116.3z"/>
	<path class="st24" d="M384,116.3h-27.2l1.3,10.5H384V116.3L384,116.3z"/>
</g>
</svg>
